<?xml version="1.0" encoding="utf-8"?>
<!-- Generator: Adobe Illustrator 22.0.1, SVG Export Plug-In . SVG Version: 6.00 Build 0)  -->
<svg version="1.1" id="Слой_1" xmlns="http://www.w3.org/2000/svg" xmlns:xlink="http://www.w3.org/1999/xlink" x="0px" y="0px"
	 viewBox="0 0 396.9 50.4" style="enable-background:new 0 0 396.9 50.4;" xml:space="preserve">
<g>
	<path d="M15.7,48.3V26.1L0.2,2.7c-0.3-0.5-0.3-0.9-0.1-1.4c0.2-0.4,0.6-0.7,1.2-0.7h9.1c0.4,0,0.8,0.2,1.1,0.6l9.7,14.3L31,1.3
		c0.3-0.4,0.7-0.6,1.1-0.6h9.1c0.6,0,1,0.2,1.2,0.7c0.2,0.4,0.2,0.9-0.1,1.4L26.7,26v22.3c0,0.3-0.1,0.6-0.4,0.9
		c-0.3,0.3-0.6,0.4-0.9,0.4H17c-0.4,0-0.7-0.1-0.9-0.4C15.8,49,15.7,48.7,15.7,48.3"/>
	<path d="M54.3,43.1C49.5,38.2,47,32.2,47,25.3c0-7,2.4-13,7.3-17.9C59.2,2.5,65.1,0,72.1,0c7,0,12.9,2.5,17.8,7.4
		c4.9,4.9,7.3,10.9,7.3,17.9c0,7-2.4,12.9-7.3,17.8c-4.9,4.9-10.8,7.3-17.8,7.3C65.1,50.4,59.2,47.9,54.3,43.1 M58.2,25.3
		c0,3.8,1.4,7.1,4.1,9.8c2.7,2.7,6,4.1,9.8,4.1c3.8,0,7.1-1.4,9.9-4.1c2.8-2.7,4.1-6,4.1-9.8c0-3.9-1.4-7.2-4.1-9.9
		c-2.8-2.8-6-4.1-9.9-4.1c-3.8,0-7.1,1.4-9.8,4.1C59.6,18.1,58.2,21.4,58.2,25.3"/>
	<path d="M115.3,43.1c-4.9-4.9-7.3-10.8-7.3-17.8c0-7,2.4-13,7.3-17.9c4.9-4.9,10.8-7.4,17.8-7.4c7,0,12.9,2.5,17.8,7.4
		c4.9,4.9,7.3,10.9,7.3,17.9c0,7-2.4,12.9-7.3,17.8c-4.9,4.9-10.8,7.3-17.8,7.3C126.1,50.4,120.2,47.9,115.3,43.1 M119.2,25.3
		c0,3.8,1.4,7.1,4.1,9.8c2.7,2.7,6,4.1,9.8,4.1c3.8,0,7.1-1.4,9.9-4.1c2.8-2.7,4.1-6,4.1-9.8c0-3.9-1.4-7.2-4.1-9.9
		c-2.8-2.8-6-4.1-9.9-4.1c-3.8,0-7.1,1.4-9.8,4.1C120.6,18.1,119.2,21.4,119.2,25.3"/>
	<path d="M172.3,48.3V2c0-0.4,0.1-0.7,0.4-0.9c0.3-0.3,0.6-0.4,0.9-0.4h29c0.4,0,0.7,0.1,0.9,0.4c0.3,0.3,0.4,0.6,0.4,0.9v7.6
		c0,0.4-0.1,0.7-0.4,0.9c-0.3,0.3-0.6,0.4-0.9,0.4h-19.4v10.1h16c0.4,0,0.7,0.1,0.9,0.4c0.3,0.3,0.4,0.6,0.4,0.9V30
		c0,0.3-0.1,0.6-0.4,0.9c-0.3,0.3-0.6,0.4-0.9,0.4h-16v17c0,0.3-0.1,0.6-0.4,0.9s-0.6,0.4-0.9,0.4h-8.3c-0.4,0-0.7-0.1-0.9-0.4
		C172.4,49,172.3,48.7,172.3,48.3"/>
	<path d="M219.9,43.1c-4.9-4.9-7.3-10.8-7.3-17.8c0-7,2.4-13,7.3-17.9c4.9-4.9,10.8-7.4,17.8-7.4c7,0,12.9,2.5,17.8,7.4
		c4.9,4.9,7.3,10.9,7.3,17.9c0,7-2.4,12.9-7.3,17.8c-4.9,4.9-10.8,7.3-17.8,7.3C230.7,50.4,224.8,47.9,219.9,43.1 M223.8,25.3
		c0,3.8,1.4,7.1,4.1,9.8c2.7,2.7,6,4.1,9.8,4.1s7.1-1.4,9.9-4.1c2.8-2.7,4.1-6,4.1-9.8c0-3.9-1.4-7.2-4.1-9.9
		c-2.8-2.8-6-4.1-9.9-4.1s-7.1,1.4-9.8,4.1C225.2,18.1,223.8,21.4,223.8,25.3"/>
	<path d="M276.9,48.3V2c0-0.4,0.1-0.7,0.4-0.9c0.3-0.3,0.6-0.4,0.9-0.4h20.9c4.2,0,7.8,1.5,10.8,4.4c3,3,4.5,6.5,4.5,10.7
		c0,3.1-0.9,5.9-2.8,8.4c-1.9,2.5-4.4,4.4-7.5,5.6l9.6,17.8c0.3,0.5,0.3,0.9,0,1.4c-0.3,0.4-0.7,0.7-1.2,0.7h-9.3
		c-0.5,0-0.9-0.2-1.1-0.6l-9.3-18.5h-4.8v17.8c0,0.3-0.1,0.6-0.4,0.9c-0.3,0.3-0.6,0.4-0.9,0.4h-8.3c-0.4,0-0.7-0.1-0.9-0.4
		C277,49,276.9,48.7,276.9,48.3 M287.9,21.6h10.4c1.4,0,2.7-0.6,3.7-1.7c1.1-1.1,1.6-2.4,1.6-3.9c0-1.4-0.5-2.7-1.6-3.7
		c-1-1.1-2.3-1.6-3.7-1.6h-10.4V21.6z"/>
	<path d="M329,48.3V2c0-0.3,0.1-0.6,0.4-0.9c0.3-0.3,0.6-0.4,0.9-0.4h8.4c0.3,0,0.6,0.1,0.9,0.4c0.3,0.3,0.4,0.6,0.4,0.9v46.3
		c0,0.3-0.1,0.6-0.4,0.9c-0.3,0.3-0.6,0.4-0.9,0.4h-8.4c-0.3,0-0.6-0.1-0.9-0.4C329.1,49,329,48.7,329,48.3"/>
	<path d="M361.5,43.1c-4.9-4.9-7.4-10.8-7.4-17.8s2.5-13,7.4-17.9c4.9-4.9,10.9-7.4,17.9-7.4c6.5,0,12.2,2.2,16.9,6.5
		c0.7,0.7,0.7,1.3,0.1,2l-5.5,5.7c-0.6,0.6-1.2,0.6-1.7,0c-2.7-2.4-5.8-3.6-9.4-3.6c-3.9,0-7.2,1.4-9.8,4.2
		C367.3,17.6,366,21,366,25c0,3.9,1.3,7.3,4,10c2.6,2.8,5.9,4.2,9.8,4.2c3.6,0,6.8-1.1,9.4-3.4c0.7-0.6,1.3-0.5,1.8,0.1l5.5,5.8
		c0.6,0.6,0.6,1.2-0.1,1.9c-4.7,4.5-10.3,6.8-17,6.8C372.3,50.4,366.4,47.9,361.5,43.1"/>
</g>
</svg>
