<?xml version="1.0" encoding="utf-8"?><svg xmlns="http://www.w3.org/2000/svg" xmlns:xlink="http://www.w3.org/1999/xlink"><symbol fill="none" viewBox="0 0 18 2" id="accordion-close" xmlns="http://www.w3.org/2000/svg"><path d="M0 1a1 1 0 011-1h16a1 1 0 110 2H1a1 1 0 01-1-1z" fill="#A5A5B5"/></symbol><symbol fill="none" viewBox="0 0 18 18" id="accordion-open" xmlns="http://www.w3.org/2000/svg"><path fill-rule="evenodd" clip-rule="evenodd" d="M8 17a1 1 0 102 0v-7h7a1 1 0 100-2h-7V1a1 1 0 10-2 0v7H1a1 1 0 100 2h7v7z" fill="#000"/></symbol><symbol fill="none" viewBox="0 0 22 16" id="back-arrow" xmlns="http://www.w3.org/2000/svg"><path fill-rule="evenodd" clip-rule="evenodd" d="M9.069 14.786a.995.995 0 01-1.412.002L1.293 8.424a1.003 1.003 0 01-.283-.85.995.995 0 01.27-.916L7.642.294A1.004 1.004 0 019.06.29a.996.996 0 01.003 1.412L4.27 6.496h16.726c.553 0 1.002.447 1.004 1a.996.996 0 01-.996 1H4.193l4.873 4.873c.391.39.392 1.025.003 1.417z" fill="#000"/></symbol><symbol fill="none" viewBox="0 0 38 38" id="card-checked" xmlns="http://www.w3.org/2000/svg"><circle opacity=".5" cx="19" cy="19" r="19" fill="#E2E2EC"/><path fill-rule="evenodd" clip-rule="evenodd" d="M16.703 22.505l9.155-9.155a1.195 1.195 0 111.69 1.69l-9.79 9.79a1.191 1.191 0 01-.822.35c-.417.14-.895.043-1.226-.288l-4.36-4.36a1.195 1.195 0 111.69-1.69l3.663 3.663z" fill="#000"/></symbol><symbol fill="none" viewBox="0 0 23 21" id="cart" xmlns="http://www.w3.org/2000/svg"><rect x="5.612" y="10.158" width="1.8" height="6.059" rx=".9" fill="#000"/><rect x="10.132" y="10.158" width="1.8" height="6.059" rx=".9" fill="#000"/><rect x="14.654" y="10.158" width="1.8" height="6.059" rx=".9" fill="#000"/><path fill-rule="evenodd" clip-rule="evenodd" d="M7.2.322a.9.9 0 111.379 1.157L4.652 6.158H17.68l-3.927-4.68a.9.9 0 011.38-1.156l4.627 5.515a.896.896 0 01.173.32h1.416a1 1 0 01.962 1.276l-3.429 12a1 1 0 01-.961.725H4.429a1 1 0 01-.961-.725l-3.429-12a1 1 0 01.962-1.275h1.397a.897.897 0 01.174-.321L7.2.322zM5.033 18.358L2.06 7.958H20.29l-2.972 10.4H5.033z" fill="#000"/></symbol><symbol fill="none" viewBox="0 0 23 21" id="cart-hover" xmlns="http://www.w3.org/2000/svg"><path fill-rule="evenodd" clip-rule="evenodd" d="M7.2.322a.9.9 0 111.378 1.157L4.652 6.158H17.68l-3.927-4.68a.9.9 0 011.38-1.156l4.627 5.515a.898.898 0 01.173.32h1.416a1 1 0 01.962 1.276l-3.429 12a1 1 0 01-.961.725H4.429a1 1 0 01-.961-.725l-3.429-12a1 1 0 01.962-1.275h1.397a.897.897 0 01.173-.321L7.2.322zm-.688 9.836a.9.9 0 00-.9.9v4.259a.9.9 0 101.8 0v-4.259a.9.9 0 00-.9-.9zm3.62.9a.9.9 0 111.8 0v4.259a.9.9 0 11-1.8 0v-4.259zm5.422-.9a.9.9 0 00-.9.9v4.259a.9.9 0 101.8 0v-4.259a.9.9 0 00-.9-.9z" fill="#000"/></symbol><symbol fill="none" viewBox="0 0 19 13" id="checkbox" xmlns="http://www.w3.org/2000/svg"><path fill-rule="evenodd" clip-rule="evenodd" d="M18.288 2.407a.996.996 0 00-.002-1.412 1.004 1.004 0 00-1.417.003L7.407 10.46 1.703 4.757a.996.996 0 00-1.412.002 1.004 1.004 0 00.003 1.417l6.364 6.364c.07.071.15.13.234.174.387.238.9.189 1.235-.146L18.288 2.407z" fill="#000"/></symbol><symbol fill="none" viewBox="0 0 17 17" id="close" xmlns="http://www.w3.org/2000/svg"><path fill-rule="evenodd" clip-rule="evenodd" d="M1.707.293A1 1 0 10.293 1.707L7.086 8.5.707 14.879a1 1 0 101.414 1.414L8.5 9.914l5.935 5.935a1 1 0 101.414-1.414L9.914 8.5l6.35-6.35A1 1 0 0014.849.738L8.5 7.086 1.707.293z" fill="#1A1A1A"/></symbol><symbol fill="none" viewBox="0 0 35 21" id="delivery" xmlns="http://www.w3.org/2000/svg"><path d="M26.28 12.982h0-.003c-.8 0-1.54.257-2.15.686v-3.545H32.4v5.836h-2.44a3.492 3.492 0 00-1.103-2.027c-.62-.555-1.483-.912-2.576-.95zm2.077 3.826v0c0 1.17-.92 2.092-2.08 2.092-1.16 0-2.08-.922-2.08-2.091 0-1.189.92-2.126 2.078-2.127.594.029 1.116.241 1.487.602.37.361.598.876.595 1.524zm-17.156-.002h0v.002c0 1.165-.92 2.092-2.08 2.092a2.083 2.083 0 01-2.08-2.092v-.023c0-1.164.937-2.102 2.078-2.103 1.312.044 2.105 1.087 2.082 2.124zM24.088 2.658C23.9 1.668 23.038.9 22 .9H3.027C1.851.9.9 1.885.9 3.063v12.433c0 1.17.94 2.163 2.127 2.163h2.416C5.83 19.337 7.335 20.6 9.121 20.6a3.8 3.8 0 003.69-2.941h9.788c.386 1.676 1.883 2.941 3.678 2.941 1.796 0 3.293-1.265 3.678-2.941h2.463c.939 0 1.682-.792 1.682-1.706v-5.836c0-.916-.761-1.694-1.682-1.694h-.325l-.219-.448c-.396-.814-.901-1.851-1.468-2.796-.365-.608-.756-1.179-1.185-1.634-.424-.45-.923-.887-1.655-.887h-3.478zM3.028 2.6H22c.24 0 .427.178.427.462V15.96H12.8c-.38-1.689-1.875-2.977-3.679-2.977-1.794 0-3.3 1.287-3.679 2.977H3.027c-.227 0-.427-.2-.427-.463V3.062c0-.284.188-.462.427-.462zm21.1 5.823V4.358h3.409l.002.001.006.003c.02.011.053.029.094.056.083.053.205.145.347.295.288.306.628.79.96 1.342.46.768.885 1.604 1.26 2.368h-6.079zm3.438-4.065V4.26l.018.01c.015.008.038.02.068.038a.102.102 0 01-.07.049.094.094 0 01-.016 0z" fill="#000" stroke="#000" stroke-width=".2"/></symbol><symbol fill="none" viewBox="0 0 17 37" id="icon-carrot" xmlns="http://www.w3.org/2000/svg"><path opacity=".7" fill-rule="evenodd" clip-rule="evenodd" d="M11.2 2.253C10.787.94 9.675 0 8.37 0 7.061 0 5.95.94 5.538 2.253a4.81 4.81 0 00-.17-.003c-2.21 0-4 1.511-4 3.375 0 2.232 2.175 2.788 3.796 3.22-1.092.533-3.103 1.286-3.964 2.26a4.785 4.785 0 00-.952 4.692l.068.204A.997.997 0 01.369 16h4a1 1 0 110 2H.988l2.684 8h1.697a1 1 0 110 2H4.343l2.13 7.349c.61 1.818 3.182 1.818 3.792 0l4.144-13.35-.04.001h-4a1 1 0 010-2h4c.24 0 .462.085.635.227l1.486-4.43a4.785 4.785 0 00-.952-4.692c-.862-.974-2.872-1.727-3.964-2.26 1.62-.432 3.795-.988 3.795-3.22 0-1.864-1.791-3.375-4-3.375-.057 0-.114 0-.17.003zM8.387 7.876H8.35l.019-.019.02.019z" fill="#000"/></symbol><symbol fill="none" viewBox="0 0 56 56" id="icon-fu" xmlns="http://www.w3.org/2000/svg"><circle cx="28" cy="28" r="27" stroke="#000" stroke-width="2"/><path fill-rule="evenodd" clip-rule="evenodd" d="M30.239 26.625c0 4.15-1.516 8.375-1.739 9.375-.238 1.068-.53 2.277-.666 2.513C27.7 38.277 27 36 27 36s-1.57-5.226-1.57-9.375c0-4.617 1.249-9.664 2.404-13.336 1.156 3.672 2.405 8.72 2.405 13.336zm2 0c0 .589-.02 1.157-.054 1.706l.017-.024c3.156-4.243 7.99-7.922 10.72-9.816.742-.515 1.644.125 1.372.974-1 3.12-3.088 8.75-6.244 12.993a22.68 22.68 0 01-2.727 3.064c3.048-.91 6.483-1.145 8.874-1.179h.024c.246-.004.481-.005.703-.005.875.002 1.239 1 .562 1.545-.171.138-.354.283-.546.433l-.019.014c-2.044 1.593-5.204 3.77-8.44 4.904-3.053 1.068-5.528.981-7.122.695a10.695 10.695 0 01-.546-.112v3.812a.979.979 0 01-1.958 0v-3.896c-.07.014-.14.028-.214.04-1.594.287-4.07.373-7.121-.695-3.237-1.133-6.397-3.31-8.441-4.903l-.019-.014c-.192-.15-.375-.295-.546-.434-.677-.544-.314-1.542.562-1.544.222 0 .457 0 .702.004h.024c2.213.032 5.32.235 8.187.987a22.942 22.942 0 01-2.363-2.716c-3.156-4.243-5.243-9.872-6.244-12.993-.272-.849.63-1.489 1.372-.974 2.73 1.894 7.564 5.573 10.72 9.816l.01.012a26.513 26.513 0 01-.054-1.694c0-6.458 2.279-13.572 3.558-17.056a.888.888 0 011.692 0c1.28 3.484 3.559 10.598 3.559 17.056zm-10.396 2.84c2.098 2.82 3.592 6.433 3.942 8.204-1.615-.873-4.43-3.548-6.528-6.369-2.048-2.753-3.641-6.181-4.755-9.05 2.449 1.921 5.293 4.461 7.341 7.215zm7.944 8.204c1.615-.873 4.535-3.548 6.632-6.369 2.048-2.753 3.642-6.181 4.755-9.05-2.448 1.921-5.293 4.461-7.34 7.215-2.098 2.82-3.697 6.433-4.047 8.204zm-8.97-.156c1.961.686 4.256 1.766 5.183 2.596-1.254.067-3.835-.224-5.796-.91-1.918-.671-3.844-1.767-5.5-2.876 1.998.171 4.196.519 6.113 1.19zm8.97 2.596c1.254.067 4.048-.069 6.01-.755 1.916-.67 3.843-1.767 5.499-2.875-1.998.17-4.196.518-6.113 1.19-1.961.686-4.469 1.61-5.396 2.44z" fill="#000"/></symbol><symbol fill="none" viewBox="0 0 27 29" id="icon-fu-large" xmlns="http://www.w3.org/2000/svg"><path fill-rule="evenodd" clip-rule="evenodd" d="M15.194 13.611c0 3.196-1.147 6.45-1.316 7.22-.18.823-.4 1.754-.503 1.936-.103-.182-.632-1.936-.632-1.936s-1.188-4.024-1.188-7.22c0-3.555.945-7.442 1.82-10.27.874 2.828 1.82 6.715 1.82 10.27zm1.514 0c0 .454-.014.892-.04 1.314l.013-.018c2.388-3.268 6.047-6.101 8.113-7.56.561-.396 1.244.097 1.038.75-.757 2.404-2.337 6.738-4.726 10.006a17.368 17.368 0 01-2.064 2.36c2.307-.701 4.907-.882 6.717-.908h.018c.186-.003.364-.004.532-.003a.66.66 0 01.425 1.189l-.413.334-.014.01c-1.547 1.227-3.94 2.904-6.389 3.776-2.31.823-4.183.756-5.39.536a7.987 7.987 0 01-.413-.086v2.935a.747.747 0 01-.74.754.747.747 0 01-.741-.754v-3l-.163.032c-1.206.22-3.08.286-5.39-.536-2.449-.873-4.84-2.55-6.388-3.776l-.014-.011a34.171 34.171 0 01-.413-.334.66.66 0 01.425-1.19c.168 0 .346.001.532.004h.018c1.675.024 4.026.181 6.196.76a17.584 17.584 0 01-1.788-2.092C3.26 14.835 1.68 10.501.923 8.097c-.206-.653.477-1.146 1.038-.75 2.066 1.459 5.725 4.292 8.114 7.56l.007.01c-.027-.42-.041-.855-.041-1.306 0-4.973 1.725-10.452 2.693-13.135.23-.635 1.052-.635 1.28 0 .97 2.683 2.694 8.162 2.694 13.135zM8.84 15.798c1.588 2.172 2.719 4.954 2.984 6.318-1.223-.672-3.353-2.732-4.94-4.904-1.55-2.12-2.757-4.76-3.6-6.97 1.853 1.48 4.006 3.436 5.556 5.556zm6.012 6.318c1.223-.672 3.433-2.732 5.02-4.904 1.55-2.12 2.756-4.76 3.599-6.97-1.853 1.48-4.006 3.436-5.556 5.556-1.588 2.172-2.798 4.954-3.063 6.318zm-6.788-.12c1.484.529 3.22 1.36 3.922 2-.949.05-2.902-.173-4.387-.702-1.45-.516-2.908-1.36-4.162-2.214 1.512.132 3.176.4 4.627.916zm6.788 2c.95.05 3.064-.053 4.549-.582 1.45-.517 2.908-1.36 4.162-2.214-1.512.131-3.176.4-4.627.916-1.484.529-3.382 1.24-4.084 1.88z" fill="#000"/></symbol><symbol fill="none" viewBox="0 0 40 45" id="icon-glutenfree" xmlns="http://www.w3.org/2000/svg"><path opacity=".7" fill-rule="evenodd" clip-rule="evenodd" d="M23.858 18.218c1.433-.07 3.683-.552 4.932-2.716 1.931-3.345.741-9.442.741-9.442s-5.875 2.017-7.806 5.362c-1.25 2.165-.542 4.355.114 5.63l-.767 1.33a5.338 5.338 0 00-.082-.872c-.67-3.803-5.419-7.723-5.419-7.723s-3.12 5.307-2.45 9.11c.67 3.804 4.88 4.664 4.88 4.664s.047-.03.131-.088l-2.139 3.705a5.528 5.528 0 00-.342-1.885c-1.321-3.63-6.391-6.77-6.391-6.77s-1.866 5.665-.545 9.295c1.006 2.762 3.567 3.55 4.733 3.767l-3.575 6.193a1.166 1.166 0 102.02 1.165l3.404-5.897c.812.956 2.765 2.765 5.598 2.266 3.804-.67 7.754-5.25 7.754-5.25s-5.278-2.952-9.082-2.281c-.57.1-1.075.277-1.521.504l2.099-3.636a4.118 4.118 0 00-.022.255s2.805 3.303 6.457 2.045c3.652-1.257 6.767-6.599 6.767-6.599s-5.743-2.29-9.395-1.033a5.23 5.23 0 00-.996.463l.902-1.562z" fill="#000"/></symbol><symbol fill="none" viewBox="0 0 56 56" id="icon-grass" xmlns="http://www.w3.org/2000/svg"><circle cx="28" cy="28" r="27" stroke="#000" stroke-width="2"/><path fill-rule="evenodd" clip-rule="evenodd" d="M14.538 30.747C9.882 23.447 13.057 12 13.057 12s11.644 1.995 16.3 9.295c3.694 5.791 1.88 13.182.973 15.99l.087.172a61.708 61.708 0 01.602 1.222c.595-1.396 1.383-2.734 2.151-3.994-.239-1.616-.88-7.691 2.368-10.939 3.768-3.767 11.342-2.301 11.342-2.301s.822 6.93-2.946 10.698c-2.493 2.493-6.371 2.976-8.71 3.018l-.057.093c-.91 1.487-1.79 2.924-2.406 4.445-.915 2.26-1.548 4.653-1.726 7.05a1 1 0 11-1.994-.149c.123-1.659.442-3.3.904-4.888a1.046 1.046 0 01-.035-.072c-.042-.092-.07-.187-.08-.225a16.447 16.447 0 01-.131-.514l-.027-.11a8.182 8.182 0 00-.51-1.361 53.096 53.096 0 00-.552-1.11c-3.004-.367-10.412-1.836-14.072-7.573zm14.52 3.569c-.49-1.269-1.302-2.438-2-3.446-.17-.244-.331-.477-.48-.7-.344-.514-.714-1.006-1.063-1.473l-.168-.223a20.892 20.892 0 01-1.114-1.6c-.62-1.013-1.308-1.94-1.984-2.827l-.352-.46a51.377 51.377 0 01-1.613-2.185 1 1 0 00-1.65 1.131c.544.793 1.124 1.55 1.684 2.282l.34.445c.67.88 1.306 1.738 1.869 2.657.384.628.81 1.209 1.218 1.755l.174.232c.352.468.685.913.996 1.378.19.284.38.559.566.829.763 1.106 1.46 2.115 1.82 3.234.086.265.186.533.294.802a24.814 24.814 0 01-3.03-.728c-3.057-.947-6.378-2.671-8.34-5.748-1.99-3.118-2.38-7.29-2.177-10.923.097-1.717.321-3.239.528-4.353 1.09.287 2.551.73 4.136 1.37 3.36 1.357 6.966 3.482 8.959 6.605 1.966 3.083 2.143 6.815 1.73 9.974a24.241 24.241 0 01-.343 1.971zm7.875-1.274l-.29.033c.33-.388.697-.769 1.087-1.156.2-.199.41-.403.625-.61v-.001c.593-.574 1.22-1.182 1.77-1.814a1 1 0 00-1.506-1.315c-.493.565-1.028 1.083-1.598 1.637-.228.22-.462.447-.7.684-.46.457-.928.943-1.363 1.472a17.79 17.79 0 01.014-1.053c.098-2.218.638-4.416 1.98-5.758 1.342-1.343 3.541-1.882 5.758-1.98a18.746 18.746 0 012.245.04c-.004.551-.035 1.21-.12 1.92-.245 2.03-.898 4.17-2.315 5.587-1.417 1.417-3.557 2.07-5.587 2.314z" fill="#000"/></symbol><symbol fill="none" viewBox="0 0 56 56" id="icon-heart" xmlns="http://www.w3.org/2000/svg"><circle cx="28" cy="28" r="27" stroke="#000" stroke-width="2"/><path d="M29.06 28.7v.1H31.63a1.13 1.13 0 010 2.26H29.06V33.63a1.13 1.13 0 01-2.26 0V31.06H24.23a1.13 1.13 0 010-2.26H26.8V26.23a1.13 1.13 0 012.26 0v2.47z" fill="#000" stroke="#E2E2F1" stroke-width=".2"/><path d="M27.949 45a3.554 3.554 0 01-1.384-.277 3.599 3.599 0 01-1.173-.796L13.026 31.371a10.645 10.645 0 01-2.267-3.5 10.776 10.776 0 01-.758-4.118c.01-1.293.27-2.57.766-3.76a9.833 9.833 0 012.127-3.175 9.663 9.663 0 013.163-2.105 9.547 9.547 0 013.716-.712 9.546 9.546 0 013.779.738 9.668 9.668 0 013.196 2.175l1.2 1.219.985-1a10.01 10.01 0 016.403-3.057 9.963 9.963 0 016.803 1.972 10.02 10.02 0 012.696 3.235 10.2 10.2 0 01.534 8.267 10.076 10.076 0 01-2.258 3.565L30.506 43.927a3.599 3.599 0 01-1.173.796c-.44.184-.91.278-1.384.277zm-8.224-28.574a7.29 7.29 0 00-5.114 2.097 7.318 7.318 0 00-1.635 2.41 7.411 7.411 0 00-.574 2.868 8.304 8.304 0 00.593 3.164 8.204 8.204 0 001.748 2.688l12.365 12.556a1.2 1.2 0 00.853.36 1.184 1.184 0 00.852-.36L41.43 29.384a7.634 7.634 0 001.68-2.694 7.726 7.726 0 00.445-3.157 7.622 7.622 0 00-.861-3.097 7.504 7.504 0 00-2.056-2.45 7.564 7.564 0 00-5.184-1.487 7.601 7.601 0 00-4.864 2.353L28.8 20.717a1.2 1.2 0 01-.852.36 1.184 1.184 0 01-.853-.36l-2.04-2.072a7.482 7.482 0 00-5.283-2.219h-.048z" fill="#000"/></symbol><symbol fill="none" viewBox="0 0 28 27" id="icon-heart-filled" xmlns="http://www.w3.org/2000/svg"><path opacity=".7" d="M25.793 2.465A7.531 7.531 0 0023.348.641 6.873 6.873 0 0020.46 0c-.992 0-1.973.218-2.888.64a7.531 7.531 0 00-2.446 1.825l-1.12 1.237-1.111-1.237A7.556 7.556 0 0010.44.646 6.9 6.9 0 007.55.01C5.544.012 3.623.9 2.208 2.478.792 4.056-.002 6.195 0 8.424c.002 2.23.8 4.367 2.22 5.941l11.11 12.316a.943.943 0 00.309.236.86.86 0 00.735 0 .943.943 0 00.309-.236l11.11-12.316C27.206 12.791 28 10.657 28 8.433c0-2.225-.794-4.359-2.207-5.933v-.035z" fill="#000"/></symbol><symbol fill="none" viewBox="0 0 30 25" id="icon-nopreserv" xmlns="http://www.w3.org/2000/svg"><path opacity=".7" fill-rule="evenodd" clip-rule="evenodd" d="M10.1 0a1 1 0 100 2h.5v5l-5 8h18l-5-8V2h.5a1 1 0 100-2h-9zM4.6 17L.179 23.433A1 1 0 001.002 25h27.294a1 1 0 00.848-1.53L25.101 17H4.6z" fill="#000"/></symbol><symbol fill="none" viewBox="0 0 56 56" id="icon-ok" xmlns="http://www.w3.org/2000/svg"><circle cx="28" cy="28" r="27" stroke="#000" stroke-width="2"/><path d="M39.9 30.502l.075.092h.689a.75.75 0 01.738.885l-1.498 8.156a.771.771 0 01-.752.619c-3.371.03-5.662.236-7.404.413l-.515.052c-1.469.151-2.513.259-3.547.181-2.289-.17-4.54-1.247-11.07-4.946-.42-.237-.491-.764-.192-1.038.425-.389.814-.61 1.183-.711a2.073 2.073 0 011.12.016c.793.215 1.645.806 2.732 1.574l.08.056.096-.012 4.18-.534.038-.005.036-.016c1.285-.606 2.25-1.714 2.05-3.281-.2-1.656-1.589-2.643-3.042-3.056l-.047-.013-.049.005-3.998.445-.131.014-.062.117c-.466.875-1.318 1.747-2.32 2.34-1.003.593-2.123.887-3.128.66a.419.419 0 01-.33-.327.682.682 0 01.132-.559l3.283-4.328a1.75 1.75 0 011.183-.68l5.747-.698.868-.106-.793-.369-8.973-4.179c-.746-.348-1.488-.778-2.027-1.314-.536-.531-.86-1.15-.814-1.89a.64.64 0 01.36-.547.913.913 0 01.747-.022l10.736 4.275.557.222-.234-.551-2.362-5.575c-.257-.605-.512-1.249-.569-1.805-.028-.274-.005-.508.076-.696a.896.896 0 01.459-.46.558.558 0 01.292-.038c.118.015.17.057.182.077l5.404 8.532c.524.826 1.803.433 1.772-.544l-.075-2.413c-.024-.756-.043-1.543.093-2.24.135-.693.416-1.263.969-1.62.174-.113.464 0 .512.255l1.114 5.956a9.25 9.25 0 001.944 4.168l4.485 5.463zm-27 1.117c-.377.497-.345 1.24.19 1.638.797.595 1.43.759 1.732.837l.032.008a9.67 9.67 0 01-.298.397c-.086.112-.189.244-.309.403-.454.599-.245 1.454.392 1.818 7.27 4.14 9.866 5.457 12.554 5.69 1.224.106 2.464-.013 4.153-.175l.485-.047a89.22 89.22 0 018.305-.435 1.272 1.272 0 001.247-1.052l1.678-10.29a1.25 1.25 0 00-1.21-1.45l-1.092-.021-4.36-5.308a5.75 5.75 0 01-1.207-2.579l-1.335-7.045c-.157-.829-.977-1.422-1.823-1.168-.32.097-.604.204-.86.335-1.087.553-1.61 1.582-1.856 2.717-.18.834-.218 1.749-.213 2.617l-3.934-6.275c-.291-.464-.788-.771-1.313-.909-.526-.137-1.11-.112-1.596.125-.566.277-.921.685-1.109 1.18-.184.487-.2 1.04-.125 1.603.144 1.078.631 2.28 1.045 3.298l.049.12.529 1.305-7.998-3.172c-1.098-.436-2.451.044-2.734 1.269a6.779 6.779 0 00-.133.768c-.152 1.358.475 2.445 1.403 3.313.924.863 2.167 1.532 3.314 2.067l3.646 1.703-1.403.159a2.25 2.25 0 00-1.54.876L12.9 31.62zm2.089 2.525l-.003-.002a.045.045 0 01.003.002zm10.352-.396l-3.356.384a17.804 17.804 0 00-2.097-1.244c.117-.074.264-.173.434-.311.38-.309.862-.806 1.385-1.643.175-.021.363-.048.557-.075l.02-.003c.236-.034.48-.068.73-.098.514-.061 1.038-.1 1.516-.06.479.04.887.156 1.19.383.294.22.514.563.587 1.116.072.685-.31 1.177-.966 1.55zm-5.693-.992a.04.04 0 010 0z" fill="#000" stroke="#000" stroke-width=".5"/></symbol><symbol fill="none" viewBox="0 0 37 41" id="icon-organic" xmlns="http://www.w3.org/2000/svg"><path opacity=".7" fill-rule="evenodd" clip-rule="evenodd" d="M17.45 3.413a1 1 0 00-1.624-.435l-8.045 7.28c-4.222 3.821-4.592 10.324-.831 14.6a6.757 6.757 0 002.496 1.784l-1.959 7.311a.878.878 0 001.65.59l3.874-1.039c.23.58.578 1.121 1.036 1.585a7.314 7.314 0 009.998.384l5.931-5.15a.784.784 0 00-.221-1.32l-7.287-2.933a7.313 7.313 0 00-9.326 3.624 4.745 4.745 0 00-.467 2.082l-3.001.804 1.47-5.483a6.76 6.76 0 003.053-.298c5.395-1.822 8.325-7.639 6.58-13.058L17.448 3.413z" fill="#000"/></symbol><symbol fill="none" viewBox="0 0 56 56" id="icon-peace" xmlns="http://www.w3.org/2000/svg"><path d="M38.438 25.117a3.388 3.388 0 00-1.53.039c-.125-1.33-1.13-2.488-2.548-2.784a3.336 3.336 0 00-1.37.004l1.535-6.897c.446-1.995-.868-3.962-2.93-4.393a3.83 3.83 0 00-.807-.086c-1.76 0-3.343 1.186-3.729 2.92l-1.253 5.622-1.254-5.622c-.386-1.734-1.969-2.92-3.728-2.92a3.83 3.83 0 00-.808.085c-2.061.432-3.375 2.395-2.93 4.394l2.295 10.31h1.953L18.95 15.09c-.22-.995.434-1.983 1.467-2.197.132-.027.269-.042.406-.042.892 0 1.675.614 1.864 1.458l1.254 5.622 1.301 5.855h1.125l1.306-5.855 1.254-5.622c.189-.848.972-1.458 1.864-1.458.137 0 .273.015.406.042 1.028.214 1.687 1.202 1.466 2.197l-2.398 10.766-.482 2.146h-9.217c-1.584 0-2.865 1.24-2.865 2.772v5.727c0 4.697 3.933 8.499 8.783 8.499h4.966c4.854 0 8.783-3.806 8.783-8.499v-4.557l.691-3.095c.382-1.695-.735-3.366-2.487-3.732zm-.402 1.804c.35.074.647.272.84.564.193.291.257.637.185.976l-1.049 4.696a1.334 1.334 0 01-1.587.992 1.322 1.322 0 01-.84-.564 1.272 1.272 0 01-.184-.976l1.048-4.697a1.334 1.334 0 011.587-.99zm-5.669-1.753a1.334 1.334 0 011.587-.992c.35.074.647.272.84.564.193.292.257.638.185.976l-.748 3.343a3.682 3.682 0 00-2.499-1.053l.458-2.06.177-.778zm-.916 17.99h-4.966c-3.793 0-6.875-2.987-6.875-6.653v-5.727c0-.51.43-.925.957-.925h11.077c.948 0 1.72.746 1.72 1.664 0 .917-.772 1.664-1.72 1.664h-6.686v1.846h.193c1.792 0 3.246 1.408 3.246 3.142v1.295h1.909v-1.295c0-1.19-.43-2.282-1.153-3.142h2.487c.815 0 1.567-.264 2.173-.707a3.223 3.223 0 002.202 1.637 3.311 3.311 0 002.306-.354v.898c.005 3.67-3.077 6.656-6.87 6.656z" fill="#000"/><circle cx="28" cy="28" r="27" stroke="#000" stroke-width="2"/></symbol><symbol fill="none" viewBox="0 0 27 27" id="icon-smile" xmlns="http://www.w3.org/2000/svg"><g opacity=".7"><circle cx="13.5" cy="13.5" r="13.5" fill="#000"/><path d="M21.952 16.321h0a.848.848 0 00-.512-1.081.848.848 0 00-1.081.513l.094.033-.094-.034a7.144 7.144 0 01-13.444 0 .846.846 0 00-1.594.569h0a8.838 8.838 0 008.316 5.853 8.84 8.84 0 008.315-5.853z" fill="#E2E2F1" stroke="#E2E2F1" stroke-width=".2"/><path fill-rule="evenodd" clip-rule="evenodd" d="M8.82 7.702a2.116 2.116 0 11-.002 4.232 2.116 2.116 0 01.001-4.232zM18.456 7.702a2.116 2.116 0 110 4.232 2.116 2.116 0 010-4.232z" fill="#E2E2F1"/></g></symbol><symbol fill="none" viewBox="0 0 56 56" id="icon-stars" xmlns="http://www.w3.org/2000/svg"><circle cx="28" cy="28" r="27" stroke="#000" stroke-width="2"/><path d="M43.923 22.873c-6.504 0-11.796-5.292-11.796-11.796a1.127 1.127 0 10-2.254 0c0 6.504-5.292 11.796-11.796 11.796a1.127 1.127 0 100 2.254c6.504 0 11.796 5.292 11.796 11.796a1.127 1.127 0 102.254 0c0-6.505 5.292-11.796 11.796-11.796a1.127 1.127 0 100-2.254zM38.41 24A14.133 14.133 0 0031 31.41 14.136 14.136 0 0023.59 24 14.133 14.133 0 0031 16.59 14.136 14.136 0 0038.41 24z" fill="#000" stroke="#000" stroke-width=".1"/><path d="M12.889 40.989a6.13 6.13 0 016.122 6.122.989.989 0 101.978 0 6.13 6.13 0 016.122-6.122.989.989 0 100-1.978 6.13 6.13 0 01-6.122-6.122.989.989 0 10-1.978 0 6.13 6.13 0 01-6.122 6.122.989.989 0 100 1.978zM16.765 40A8.158 8.158 0 0020 36.765 8.16 8.16 0 0023.235 40 8.158 8.158 0 0020 43.235 8.16 8.16 0 0016.765 40z" fill="#000" stroke="#000" stroke-width=".2"/></symbol><symbol fill="none" viewBox="0 0 38 38" id="input-success" xmlns="http://www.w3.org/2000/svg"><circle opacity=".5" cx="19" cy="19" r="19" fill="#E2E2EC"/><path fill-rule="evenodd" clip-rule="evenodd" d="M16.703 22.505l9.155-9.155a1.195 1.195 0 111.69 1.69l-9.79 9.79a1.191 1.191 0 01-.822.35c-.417.14-.895.043-1.226-.288l-4.36-4.36a1.195 1.195 0 111.69-1.69l3.663 3.663z" fill="#000"/></symbol><symbol fill="none" viewBox="0 0 21 21" id="insta" xmlns="http://www.w3.org/2000/svg"><rect x=".9" y=".9" width="19.2" height="19.2" rx="5.1" stroke="#fff" stroke-width="1.8"/><circle cx="10.5" cy="10.5" r="4.659" stroke="#fff" stroke-width="1.8"/><circle cx="16.059" cy="4.941" r="1.235" fill="#fff"/></symbol><symbol viewBox="0 0 7.3 7.1" id="link-arrow" xmlns="http://www.w3.org/2000/svg"><path d="M1.2 6.9c-.3.3-.7.3-1 0-.3-.3-.3-.7 0-1l4.6-4.5H2.9c-.8 0-1.5-.3-1.5-.7 0-.4.7-.7 1.5-.7h2.8c.2 0 .4 0 .6.1.2-.1.5 0 .7.2l.1.1c.2.1.2.2.2.3v5c0 .2-.3.3-.7.3-.4 0-.7-.2-.7-.4V2.4L1.2 6.9z"/></symbol><symbol fill="none" viewBox="0 0 10 6" id="menu-arrow" xmlns="http://www.w3.org/2000/svg"><path fill-rule="evenodd" clip-rule="evenodd" d="M4.772 3.41L7.89.292a1 1 0 111.414 1.414L5.655 5.355a.997.997 0 01-.688.293 1 1 0 01-1.026-.241L.293 1.759A1 1 0 111.708.345l3.064 3.064z" fill="#000"/></symbol><symbol fill="none" viewBox="0 0 180 224" id="menu-bg" xmlns="http://www.w3.org/2000/svg"><mask id="baa" fill="#fff"><path fill-rule="evenodd" clip-rule="evenodd" d="M82.794 9L75 0l-7.794 9H12C5.373 9 0 14.373 0 21v191c0 6.627 5.373 12 12 12h156c6.627 0 12-5.373 12-12V21c0-6.627-5.373-12-12-12H82.794z"/></mask><path fill-rule="evenodd" clip-rule="evenodd" d="M82.794 9L75 0l-7.794 9H12C5.373 9 0 14.373 0 21v191c0 6.627 5.373 12 12 12h156c6.627 0 12-5.373 12-12V21c0-6.627-5.373-12-12-12H82.794z" fill="#fff"/><path d="M75 0l1.512-1.31L75-3.054l-1.512 1.746L75 0zm7.794 9l-1.512 1.31.599.69h.913V9zM67.206 9v2h.913l.599-.69L67.206 9zm6.282-7.69l7.794 9 3.024-2.62-7.794-9-3.024 2.62zm-4.77 9l7.794-9-3.024-2.62-7.794 9 3.024 2.62zM12 11h55.206V7H12v4zM2 21c0-5.523 4.477-10 10-10V7C4.268 7-2 13.268-2 21h4zm0 191V21h-4v191h4zm10 10c-5.523 0-10-4.477-10-10h-4c0 7.732 6.268 14 14 14v-4zm156 0H12v4h156v-4zm10-10c0 5.523-4.477 10-10 10v4c7.732 0 14-6.268 14-14h-4zm0-191v191h4V21h-4zm-10-10c5.523 0 10 4.477 10 10h4c0-7.732-6.268-14-14-14v4zm-85.206 0H168V7H82.794v4z" fill="#000" mask="url(#baa)"/></symbol><symbol fill="none" viewBox="0 0 22 9" id="menu-btn" xmlns="http://www.w3.org/2000/svg"><rect width="22" height="2" rx="1" fill="#1A1A1A"/><rect y="7" width="22" height="2" rx="1" fill="#1A1A1A"/></symbol><symbol fill="none" viewBox="0 0 10 2" id="minus" xmlns="http://www.w3.org/2000/svg"><rect width="10" height="2" rx="1" fill="#000"/></symbol><symbol fill="none" viewBox="0 0 45 52" id="play-btn" xmlns="http://www.w3.org/2000/svg"><path d="M45 26L0 51.98V.02L45 26z" fill="#fff"/></symbol><symbol fill="none" viewBox="0 0 10 10" id="plus" xmlns="http://www.w3.org/2000/svg"><path fill-rule="evenodd" clip-rule="evenodd" d="M4 9a1 1 0 102 0V6h3a1 1 0 100-2H6V1a1 1 0 00-2 0v3H1a1 1 0 000 2h3v3z" fill="#000"/></symbol><symbol fill="none" viewBox="0 0 300 149" id="popup-arrow" xmlns="http://www.w3.org/2000/svg"><mask id="bfa" fill="#fff"><path fill-rule="evenodd" clip-rule="evenodd" d="M141.206 140l7.794 9 7.794-9H288c6.627 0 12-5.373 12-12V12c0-6.627-5.373-12-12-12H12C5.373 0 0 5.373 0 12v116c0 6.627 5.373 12 12 12h129.206z"/></mask><path fill-rule="evenodd" clip-rule="evenodd" d="M141.206 140l7.794 9 7.794-9H288c6.627 0 12-5.373 12-12V12c0-6.627-5.373-12-12-12H12C5.373 0 0 5.373 0 12v116c0 6.627 5.373 12 12 12h129.206z" fill="#fff"/><path d="M149 149l-1.512 1.309 1.512 1.746 1.512-1.746L149 149zm-7.794-9l1.512-1.309-.599-.691h-.913v2zm15.588 0v-2h-.913l-.599.691 1.512 1.309zM288 140v-2 2zm-137.488 7.691l-7.794-9-3.024 2.618 7.794 9 3.024-2.618zm4.77-9l-7.794 9 3.024 2.618 7.794-9-3.024-2.618zM288 138H156.794v4H288v-4zm10-10c0 5.523-4.477 10-10 10v4c7.732 0 14-6.268 14-14h-4zm0-116v116h4V12h-4zM288 2c5.523 0 10 4.477 10 10h4c0-7.732-6.268-14-14-14v4zM12 2h276v-4H12v4zM2 12C2 6.477 6.477 2 12 2v-4C4.268-2-2 4.268-2 12h4zm0 116V12h-4v116h4zm10 10c-5.523 0-10-4.477-10-10h-4c0 7.732 6.268 14 14 14v-4zm129.206 0H12v4h129.206v-4z" fill="#000" mask="url(#bfa)"/></symbol><symbol fill="none" viewBox="0 0 11 7" id="select-arrow" xmlns="http://www.w3.org/2000/svg"><path d="M5.5 7L.737.25h9.526L5.5 7z" fill="#000"/></symbol><symbol fill="none" viewBox="0 0 16 29" id="slider-arrow" xmlns="http://www.w3.org/2000/svg"><path fill-rule="evenodd" clip-rule="evenodd" d="M12.462 14.462L.561 2.561A1.5 1.5 0 012.682.439L15.41 13.167c.169.17.29.369.36.581a1.5 1.5 0 01-.21 1.858L2.834 28.334A1.5 1.5 0 01.71 26.213l11.751-11.75z" fill="#000"/></symbol><symbol fill="none" viewBox="0 0 29 35" id="social-arrow" xmlns="http://www.w3.org/2000/svg"><path fill-rule="evenodd" clip-rule="evenodd" d="M6.533 33.298a2.96 2.96 0 01-4.026 1.062 2.905 2.905 0 01-1.054-3.995L14.761 7.727l-10.55 2.758c-1.57.41-3.177-.519-3.591-2.074a2.91 2.91 0 012.092-3.56L19.764.396a2.952 2.952 0 012.082.22 2.906 2.906 0 011.36 1.1c.454.374.799.887.96 1.495l4.5 16.9a2.91 2.91 0 01-2.093 3.559c-1.57.41-3.178-.519-3.592-2.074L20 10.39 6.533 33.298z" fill="#000"/></symbol></svg>