<svg width="22" height="16" viewBox="0 0 22 16" fill="none" xmlns="http://www.w3.org/2000/svg">
    <path fill-rule="evenodd" clip-rule="evenodd" d="M9.06903 14.7858C8.67994 15.1778 8.04794 15.179 7.65741 14.7884L1.29345 8.42447C1.06169 8.19271 0.967065 7.87509 1.00975 7.57322C0.940638 7.25352 1.03043 6.90649 1.27935 6.65757L7.64331 0.29361C8.03383 -0.0969136 8.66816 -0.0980742 9.06011 0.291018C9.45206 0.680112 9.45321 1.31212 9.06269 1.70264L4.26977 6.49556L20.9963 6.49556C21.5486 6.49556 21.998 6.94327 22 7.49555C22.002 8.04783 21.5559 8.49554 21.0037 8.49554L4.19294 8.49554L9.06644 13.369C9.45697 13.7596 9.45813 14.3939 9.06903 14.7858Z" fill="black"/>
</svg>
