<svg width="23" height="21" viewBox="0 0 23 21" fill="none" xmlns="http://www.w3.org/2000/svg">
    <path fill-rule="evenodd" clip-rule="evenodd" d="M7.19957 0.321512C7.51907 -0.0592552 8.08675 -0.108921 8.46752 0.210581C8.84828 0.530082 8.89795 1.09776 8.57845 1.47853L4.65195 6.15795H17.6796L13.7533 1.47874C13.4338 1.09797 13.4835 0.530291 13.8642 0.21079C14.245 -0.108712 14.8127 -0.0590463 15.1322 0.321721L19.7603 5.83724C19.8418 5.93439 19.8993 6.0437 19.9334 6.15795H21.3491C22.0135 6.15795 22.4932 6.79386 22.3107 7.43267L18.8821 19.4327C18.7594 19.862 18.3671 20.1579 17.9206 20.1579H4.42918C3.9827 20.1579 3.59031 19.862 3.46766 19.4327L0.0390845 7.43267C-0.143434 6.79386 0.336229 6.15795 1.00061 6.15795H2.39835C2.43243 6.04362 2.48993 5.93424 2.5715 5.83703L7.19957 0.321512ZM6.51189 10.158C6.01483 10.158 5.61189 10.5609 5.61189 11.058V15.3167C5.61189 15.8138 6.01483 16.2167 6.51189 16.2167C7.00895 16.2167 7.41189 15.8138 7.41189 15.3167V11.058C7.41189 10.5609 7.00895 10.158 6.51189 10.158ZM10.1324 11.058C10.1324 10.5609 10.5353 10.158 11.0324 10.158C11.5295 10.158 11.9324 10.5609 11.9324 11.058V15.3167C11.9324 15.8138 11.5295 16.2167 11.0324 16.2167C10.5353 16.2167 10.1324 15.8138 10.1324 15.3167V11.058ZM15.5539 10.158C15.0568 10.158 14.6539 10.5609 14.6539 11.058V15.3167C14.6539 15.8138 15.0568 16.2167 15.5539 16.2167C16.0509 16.2167 16.4539 15.8138 16.4539 15.3167V11.058C16.4539 10.5609 16.0509 10.158 15.5539 10.158Z" fill="black"/>
</svg>