<svg width="23" height="21" viewBox="0 0 23 21" fill="none" xmlns="http://www.w3.org/2000/svg">
    <rect x="5.61182" y="10.1582" width="1.8" height="6.05878" rx="0.9" fill="black"/>
    <rect x="10.1323" y="10.1582" width="1.8" height="6.05878" rx="0.9" fill="black"/>
    <rect x="14.6538" y="10.1582" width="1.8" height="6.05878" rx="0.9" fill="black"/>
    <path fill-rule="evenodd" clip-rule="evenodd" d="M7.19964 0.321512C7.51914 -0.0592552 8.08682 -0.108921 8.46759 0.210581C8.84836 0.530082 8.89802 1.09776 8.57852 1.47853L4.65202 6.15795H17.6797L13.7534 1.47874C13.4339 1.09797 13.4836 0.530291 13.8643 0.21079C14.2451 -0.108712 14.8128 -0.0590463 15.1323 0.321721L19.7603 5.83724C19.8419 5.93439 19.8993 6.0437 19.9334 6.15795H21.3491C22.0135 6.15795 22.4932 6.79386 22.3107 7.43267L18.8821 19.4327C18.7594 19.862 18.3671 20.1579 17.9206 20.1579H4.42918C3.9827 20.1579 3.59031 19.862 3.46766 19.4327L0.0390845 7.43267C-0.143434 6.79386 0.336229 6.15795 1.00061 6.15795H2.39842C2.4325 6.04362 2.49001 5.93424 2.57157 5.83703L7.19964 0.321512ZM5.03262 18.358L2.06119 7.95795H20.2886L17.3171 18.358H5.03262Z" fill="black"/>
</svg>