<svg width="17" height="17" viewBox="0 0 17 17" fill="none" xmlns="http://www.w3.org/2000/svg">
    <path fill-rule="evenodd" clip-rule="evenodd" d="M1.70711 0.292894C1.31658 -0.0976315 0.683419 -0.0976315 0.292893 0.292894C-0.0976312 0.683418 -0.0976312 1.31658 0.292895 1.70711L7.08579 8.5L0.707108 14.8787C0.316582 15.2692 0.316582 15.9024 0.707108 16.2929C1.09763 16.6834 1.7308 16.6834 2.12132 16.2929L8.5 9.91421L14.435 15.8492C14.8256 16.2398 15.4587 16.2398 15.8492 15.8492C16.2398 15.4587 16.2398 14.8256 15.8492 14.435L9.91421 8.5L16.2635 2.15076C16.654 1.76023 16.654 1.12707 16.2635 0.736546C15.8729 0.34602 15.2398 0.346022 14.8492 0.736546L8.5 7.08579L1.70711 0.292894Z" fill="#1A1A1A"/>
</svg>
