<svg width="35" height="21" viewBox="0 0 35 21" fill="none" xmlns="http://www.w3.org/2000/svg">
    <path d="M26.2809 12.9821L26.2809 12.982H26.2773C25.4778 12.982 24.7366 13.2385 24.1273 13.668V10.1234H32.4V15.9531C32.4 15.9552 32.3997 15.957 32.3992 15.9586H29.96C29.8247 15.1815 29.456 14.4671 28.8574 13.9322C28.2366 13.3774 27.3738 13.0205 26.2809 12.9821ZM28.357 16.8081V16.8086C28.357 17.9779 27.4379 18.9 26.2773 18.9C25.1168 18.9 24.1977 17.9779 24.1977 16.8086C24.1977 15.62 25.117 14.6833 26.275 14.682C26.8691 14.7108 27.3905 14.9231 27.762 15.2844C28.1329 15.6451 28.3604 16.1604 28.357 16.8081ZM11.2008 16.8061H11.2008V16.8084C11.2008 17.9733 10.2815 18.8998 9.12109 18.8998C7.97859 18.8998 7.04141 17.9728 7.04141 16.8084V16.7851C7.04141 15.6206 7.97839 14.6829 9.11946 14.682C10.4311 14.7258 11.2241 15.7694 11.2008 16.8061ZM24.0883 2.65781C23.8994 1.6684 23.0386 0.9 22 0.9H3.02734C1.85133 0.9 0.9 1.88478 0.9 3.0625V15.4961C0.9 16.6666 1.84028 17.6586 3.02734 17.6586H5.443C5.83047 19.3374 7.33537 20.6 9.12109 20.6C10.9162 20.6 12.4225 19.3377 12.8109 17.6586H22.5992C22.9845 19.3354 24.4821 20.6 26.2773 20.6C28.0727 20.6 29.5702 19.3354 29.9555 17.6586H32.418C33.3568 17.6586 34.1 16.8672 34.1 15.9531V10.1172C34.1 9.20147 33.3389 8.42344 32.418 8.42344H32.0934C32.0248 8.28408 31.9517 8.13397 31.8745 7.97545C31.4778 7.16086 30.9727 6.12388 30.4061 5.17904C30.0412 4.57066 29.65 4.00019 29.2213 3.54474C28.7973 3.09435 28.2981 2.65781 27.5664 2.65781H24.0883ZM3.02734 2.6H22C22.2397 2.6 22.4273 2.77787 22.4273 3.0625V15.9586H12.7996C12.4202 14.2703 10.9251 12.982 9.12109 12.982C7.32672 12.982 5.82132 14.2688 5.44248 15.9586H3.02734C2.79958 15.9586 2.6 15.759 2.6 15.4961V3.0625C2.6 2.77787 2.78769 2.6 3.02734 2.6ZM24.1273 8.42344V4.35781H27.5367C27.5376 4.35827 27.5385 4.35872 27.5393 4.35917C27.5414 4.36029 27.5435 4.36137 27.5453 4.36238C27.5659 4.37337 27.5979 4.39089 27.6392 4.41761C27.7219 4.47107 27.8442 4.56267 27.9858 4.71305C28.2736 5.0188 28.6143 5.50305 28.9455 6.05534C29.4057 6.8227 29.8307 7.65868 30.2067 8.42344H24.1273ZM27.5664 4.35781V4.2599C27.569 4.26175 27.575 4.26491 27.584 4.26966C27.5988 4.27752 27.6218 4.28974 27.6518 4.30767C27.643 4.32299 27.6309 4.33453 27.6194 4.34197C27.6022 4.35311 27.5862 4.35585 27.5811 4.35664C27.5743 4.35772 27.5689 4.35781 27.5664 4.35781Z" fill="black" stroke="black" stroke-width="0.2"/>
</svg>
