<svg width="56" height="56" viewBox="0 0 56 56" fill="none" xmlns="http://www.w3.org/2000/svg">
    <circle cx="28" cy="28" r="27" stroke="black" stroke-width="2"/>
    <path d="M43.9231 22.8731C37.4189 22.8731 32.1269 17.5815 32.1269 11.0769C32.1269 10.4544 31.6225 9.95 31 9.95C30.3775 9.95 29.8731 10.4544 29.8731 11.0769C29.8731 17.5815 24.5811 22.8731 18.0769 22.8731C17.4544 22.8731 16.95 23.3775 16.95 24C16.95 24.6225 17.4544 25.1269 18.0769 25.1269C24.5811 25.1269 29.8731 30.4185 29.8731 36.9231C29.8731 37.5456 30.3775 38.05 31 38.05C31.6225 38.05 32.1269 37.5456 32.1269 36.9231C32.1269 30.4185 37.4189 25.1269 43.9231 25.1269C44.5456 25.1269 45.05 24.6225 45.05 24C45.05 23.3775 44.5456 22.8731 43.9231 22.8731ZM38.4102 24C35.0889 25.4221 32.4221 28.0889 31 31.4102C29.5779 28.0893 26.9111 25.4225 23.5898 24C26.9111 22.5779 29.5779 19.9111 31 16.5898C32.4221 19.9107 35.0889 22.5775 38.4102 24Z" fill="black" stroke="black" stroke-width="0.1"/>
    <path d="M12.8889 40.9889C16.2644 40.9889 19.0111 43.7356 19.0111 47.1111C19.0111 47.6574 19.4537 48.1 20 48.1C20.5463 48.1 20.9889 47.6574 20.9889 47.1111C20.9889 43.7356 23.7356 40.9889 27.1111 40.9889C27.6574 40.9889 28.1 40.5463 28.1 40C28.1 39.4537 27.6574 39.0111 27.1111 39.0111C23.7356 39.0111 20.9889 36.2644 20.9889 32.8889C20.9889 32.3426 20.5463 31.9 20 31.9C19.4537 31.9 19.0111 32.3426 19.0111 32.8889C19.0111 36.2644 16.2644 39.0111 12.8889 39.0111C12.3426 39.0111 11.9 39.4537 11.9 40C11.9 40.5463 12.3426 40.9889 12.8889 40.9889ZM16.7647 40C18.1276 39.2543 19.2543 38.1277 20 36.7647C20.7457 38.1277 21.8724 39.254 23.2353 40C21.8724 40.7457 20.7457 41.8723 20 43.2353C19.2543 41.8723 18.1276 40.746 16.7647 40Z" fill="black" stroke="black" stroke-width="0.2"/>
</svg>
