<svg width="56" height="56" viewBox="0 0 56 56" fill="none" xmlns="http://www.w3.org/2000/svg">
    <circle cx="28" cy="28" r="27" stroke="black" stroke-width="2"/>
    <path fill-rule="evenodd" clip-rule="evenodd" d="M14.538 30.7465C9.8818 23.4462 13.0569 12 13.0569 12C13.0569 12 24.7007 13.9945 29.3569 21.2948C33.0508 27.0863 31.2373 34.4772 30.3299 37.2849C30.3587 37.3422 30.3877 37.3996 30.4167 37.4572C30.5993 37.8196 30.7851 38.1884 30.966 38.566C30.9838 38.6032 31.0016 38.641 31.0194 38.6794C31.6137 37.2832 32.4016 35.9452 33.17 34.685C32.9312 33.0693 32.2906 26.9939 35.538 23.7465C39.3056 19.9789 46.8798 21.4445 46.8798 21.4445C46.8798 21.4445 47.7017 28.375 43.9341 32.1426C41.4408 34.6358 37.5625 35.1191 35.2241 35.1608L35.1669 35.2544C34.2568 36.7414 33.3777 38.1779 32.7614 39.6991C31.8457 41.9591 31.2128 44.3515 31.0352 46.7483C30.9944 47.2991 30.5149 47.7125 29.9641 47.6717C29.4133 47.6309 28.9999 47.1513 29.0407 46.6005C29.1636 44.9412 29.4828 43.3001 29.9452 41.7116C29.9285 41.6811 29.9167 41.6559 29.9095 41.64C29.8679 41.5485 29.8402 41.4529 29.8293 41.4153L29.8291 41.4144C29.7953 41.2978 29.7347 41.0482 29.699 40.901L29.699 40.9009C29.6857 40.8462 29.6759 40.8057 29.6721 40.7914C29.5604 40.3654 29.3648 39.8528 29.1622 39.43C29.0212 39.1356 28.8618 38.8193 28.6949 38.4883C28.6667 38.4324 28.6383 38.376 28.6098 38.3193C25.6064 37.9534 18.1978 36.4845 14.538 30.7465ZM29.0578 34.3155C28.5674 33.0471 27.7564 31.8777 27.0574 30.8697L27.0573 30.8696C26.8888 30.6265 26.7267 30.3929 26.5773 30.1695C26.2336 29.6558 25.8644 29.1638 25.5145 28.6974L25.3468 28.4737C24.9412 27.9315 24.5644 27.4155 24.2328 26.8734C23.6136 25.8612 22.9251 24.9343 22.2488 24.0471C22.1309 23.8924 22.0136 23.7393 21.8971 23.5871L21.8969 23.5868L21.8969 23.5868C21.3372 22.8559 20.7953 22.1482 20.284 21.4023C19.9718 20.9468 19.3493 20.8306 18.8938 21.1429C18.4382 21.4551 18.3221 22.0775 18.6343 22.5331C19.1782 23.3265 19.7581 24.0837 20.3185 24.8154L20.3186 24.8154C20.4328 24.9645 20.5461 25.1125 20.6582 25.2596C21.3288 26.1392 21.9643 26.9978 22.5267 27.9171C22.911 28.5453 23.3368 29.1256 23.7452 29.6716L23.919 29.9035L23.9191 29.9036C24.2707 30.3724 24.6039 30.8166 24.915 31.2816C25.105 31.5656 25.295 31.841 25.481 32.1106C26.2442 33.2165 26.941 34.2264 27.3019 35.3451C27.3873 35.6098 27.4865 35.878 27.5949 36.1467C26.7229 35.9937 25.6795 35.7634 24.5658 35.4187C21.5078 34.4721 18.1866 32.7478 16.2242 29.671C14.2353 26.5526 13.8444 22.3804 14.0483 18.7477C14.1446 17.0308 14.3692 15.5093 14.576 14.3953C15.6656 14.6816 17.1274 15.1242 18.7117 15.7642C22.0724 17.122 25.6784 19.2468 27.6707 22.3703C29.6367 25.4527 29.8143 29.185 29.4008 32.3438C29.3085 33.0489 29.1883 33.7119 29.0578 34.3155ZM36.9331 33.0425C36.8352 33.0543 36.7382 33.0651 36.6424 33.0749C36.9738 32.6869 37.3397 32.3064 37.7298 31.9191C37.9302 31.7202 38.1404 31.5164 38.3551 31.3082L38.3555 31.3078C38.9477 30.7336 39.5745 30.126 40.1256 29.4944C40.4887 29.0782 40.4457 28.4465 40.0296 28.0834C39.6134 27.7203 38.9817 27.7633 38.6186 28.1794C38.1264 28.7435 37.5912 29.2624 37.0206 29.8157L37.0205 29.8158L37.0205 29.8158C36.7927 30.0367 36.5593 30.263 36.3208 30.4998C35.8603 30.9569 35.3925 31.4428 34.9576 31.9717C34.9525 31.6366 34.9562 31.2833 34.9723 30.9185C35.0703 28.7015 35.61 26.5029 36.9522 25.1607C38.2944 23.8185 40.4931 23.2787 42.7101 23.1807C43.5459 23.1437 44.3215 23.1724 44.9551 23.2211C44.9507 23.7722 44.9198 24.4309 44.8341 25.1415C44.5896 27.1715 43.9368 29.3115 42.5199 30.7284C41.103 32.1453 38.9631 32.798 36.9331 33.0425Z" fill="black"/>
</svg>
