<svg width="27" height="29" viewBox="0 0 27 29" fill="none" xmlns="http://www.w3.org/2000/svg">
    <path fill-rule="evenodd" clip-rule="evenodd" d="M15.1945 13.6113C15.1945 16.8066 14.0474 20.061 13.8785 20.8311C13.6981 21.6538 13.4771 22.5847 13.3746 22.7665C13.2721 22.5847 12.7432 20.8311 12.7432 20.8311C12.7432 20.8311 11.5547 16.8066 11.5547 13.6113C11.5547 10.056 12.5001 6.16861 13.3746 3.34066C14.249 6.16861 15.1945 10.056 15.1945 13.6113ZM16.7082 13.6113C16.7082 14.0647 16.6939 14.5027 16.6671 14.9252L16.6806 14.9067C19.069 11.6389 22.7281 8.80599 24.7938 7.34707C25.3551 6.95069 26.0379 7.44384 25.8321 8.09692C25.0746 10.5006 23.4949 14.8354 21.1064 18.1032C20.4231 19.0381 19.7242 19.8164 19.0423 20.4633C21.3493 19.762 23.9489 19.581 25.759 19.555L25.777 19.5548C25.9631 19.5522 26.1408 19.5513 26.3089 19.5516C26.9714 19.5528 27.2464 20.3214 26.7343 20.741C26.6044 20.8474 26.4663 20.9589 26.3206 21.0745L26.3067 21.0856C24.7598 22.3118 22.3677 23.9892 19.9182 24.8615C17.6086 25.6841 15.735 25.6175 14.5287 25.3973C14.3808 25.3703 14.2428 25.341 14.1154 25.3107V28.2462C14.1154 28.6625 13.7837 29 13.3746 29C12.9654 29 12.6338 28.6625 12.6338 28.2462V25.2462C12.581 25.2569 12.5269 25.2674 12.4713 25.2775C11.265 25.4978 9.39142 25.5644 7.08175 24.7418C4.63227 23.8694 2.24041 22.1921 0.693484 20.966L0.679359 20.9548C0.533674 20.8392 0.395555 20.7276 0.265665 20.6212C-0.246373 20.2017 0.0285738 19.433 0.691104 19.4318C0.859169 19.4315 1.03685 19.4324 1.22297 19.435L1.24077 19.4352C2.91586 19.4592 5.26726 19.6161 7.43698 20.1951C6.84332 19.6042 6.24026 18.9124 5.64878 18.1032C3.26036 14.8354 1.68063 10.5006 0.92313 8.09692C0.717321 7.44385 1.40016 6.95069 1.96139 7.34707C4.02709 8.80599 7.68622 11.639 10.0746 14.9067L10.0815 14.9162C10.0551 14.4964 10.041 14.0615 10.041 13.6113C10.041 8.63771 11.7661 3.15921 12.7344 0.476085C12.9634 -0.158696 13.7858 -0.158694 14.0148 0.476086C14.9831 3.15922 16.7082 8.63771 16.7082 13.6113ZM8.84028 15.7982C10.4278 17.9702 11.559 20.7524 11.8239 22.116C10.6011 21.4442 8.47065 19.3837 6.88315 17.2117C5.33319 15.0911 4.12702 12.4513 3.2843 10.2422C5.13741 11.7216 7.29032 13.6776 8.84028 15.7982ZM14.8523 22.116C16.0751 21.4442 18.2846 19.3837 19.8721 17.2117C21.422 15.0911 22.6282 12.4513 23.4709 10.2422C21.6178 11.7216 19.4649 13.6776 17.9149 15.7982C16.3274 17.9702 15.1173 20.7524 14.8523 22.116ZM8.06381 21.9963C9.5479 22.5248 11.2845 23.3564 11.9864 23.9956C11.0375 24.0469 9.08355 23.823 7.59946 23.2944C6.14839 22.7776 4.69065 21.9338 3.43695 21.0802C4.94896 21.2116 6.61274 21.4795 8.06381 21.9963ZM14.8523 23.9956C15.8012 24.0469 17.9164 23.9428 19.4005 23.4142C20.8516 22.8974 22.3094 22.0535 23.5631 21.2C22.051 21.3314 20.3873 21.5993 18.9362 22.116C17.4521 22.6446 15.5542 23.3564 14.8523 23.9956Z" fill="black"/>
</svg>