<svg width="17" height="37" viewBox="0 0 17 37" fill="none" xmlns="http://www.w3.org/2000/svg">
    <path opacity="0.7" fill-rule="evenodd" clip-rule="evenodd" d="M11.1993 2.25291C10.7882 0.940552 9.67628 0 8.36909 0C7.06191 0 5.94999 0.940557 5.53889 2.25293C5.48256 2.25094 5.42594 2.24993 5.36903 2.24993C3.1599 2.24993 1.36905 3.76097 1.36905 5.62492C1.36905 7.8574 3.544 8.41295 5.1645 8.8442C4.07257 9.37764 2.06218 10.1314 1.20071 11.1055C0.0674804 12.3868 -0.295513 14.1757 0.24862 15.7974L0.317035 16.0013C0.334261 16.0004 0.351601 16 0.369046 16H4.36905C4.92133 16 5.36905 16.4477 5.36905 17C5.36905 17.5523 4.92133 18 4.36905 18H0.987642L3.67185 26H5.36905C5.92133 26 6.36905 26.4477 6.36905 27C6.36905 27.5523 5.92133 28 5.36905 28H4.34291L6.47308 35.3488C7.08321 37.1672 9.65519 37.1672 10.2653 35.3488L14.4089 21.9992C14.3957 21.9997 14.3824 22 14.369 22H10.369C9.81676 22 9.36905 21.5523 9.36905 21C9.36905 20.4477 9.81676 20 10.369 20H14.369C14.6099 20 14.8309 20.0852 15.0035 20.227L16.4898 15.7974C17.0339 14.1757 16.6709 12.3868 15.5377 11.1055C14.6762 10.1313 12.6657 9.37756 11.5737 8.84411C13.194 8.41278 15.3688 7.8574 15.3688 5.62492C15.3688 3.76097 13.578 2.24993 11.3689 2.24993C11.3121 2.24993 11.2555 2.25094 11.1993 2.25291ZM8.38805 7.87553L8.34984 7.87553L8.36895 7.8574L8.38805 7.87553Z" fill="black"/>
</svg>
