<svg width="56" height="56" viewBox="0 0 56 56" fill="none" xmlns="http://www.w3.org/2000/svg">
    <path d="M38.4381 25.1171C38.2091 25.0704 37.9761 25.0471 37.751 25.0471C37.4618 25.0471 37.1805 25.086 36.9073 25.156C36.7827 23.8263 35.7783 22.6677 34.3599 22.3722C34.1309 22.3256 33.8979 22.3022 33.6729 22.3022C33.4398 22.3022 33.2148 22.3294 32.9898 22.3761L34.5247 15.4789C34.9707 13.4844 33.6568 11.5171 31.5956 11.0855C31.3264 11.0272 31.0532 11 30.788 11C29.0282 11 27.4451 12.1858 27.0594 13.9198L25.8058 19.5418L24.5522 13.9198C24.1665 12.1858 22.5834 11 20.8236 11C20.5584 11 20.2852 11.0272 20.016 11.0855C17.9548 11.5171 16.641 13.4805 17.0869 15.4789L19.3812 25.7897H21.3339L18.9513 15.0901C18.7303 14.0948 19.3852 13.1073 20.4178 12.8934C20.5504 12.8662 20.687 12.8507 20.8236 12.8507C21.7156 12.8507 22.4991 13.465 22.6879 14.3086L23.9415 19.9306L25.2433 25.7858H26.3683L27.6741 19.9306L28.9277 14.3086C29.1166 13.4611 29.9001 12.8507 30.792 12.8507C30.9286 12.8507 31.0653 12.8662 31.1978 12.8934C32.2264 13.1073 32.8854 14.0948 32.6644 15.0901L30.2657 25.8558L29.7835 28.0019H20.5665C18.9834 28.0019 17.7017 29.2422 17.7017 30.774V33.9155V36.501C17.7017 41.1976 21.6352 45 26.4848 45H31.451C36.3046 45 40.2341 41.1937 40.2341 36.501V31.9443L40.9252 28.8495C41.3069 27.1544 40.1899 25.4826 38.4381 25.1171ZM38.0363 26.9211C38.3859 26.995 38.6832 27.1933 38.8761 27.4848C39.0689 27.7764 39.1332 28.1225 39.0609 28.4607L38.0122 33.1573C37.8796 33.7483 37.3332 34.1799 36.7104 34.1799C36.614 34.1799 36.5216 34.1682 36.4251 34.1488C36.0756 34.0749 35.7783 33.8766 35.5854 33.585C35.3925 33.2934 35.3283 32.9474 35.4006 32.6091L36.4492 27.9125C36.5818 27.3216 37.1283 26.89 37.751 26.89C37.8435 26.8939 37.9399 26.9017 38.0363 26.9211ZM32.3671 25.1676C32.4996 24.5767 33.0461 24.1451 33.6689 24.1451C33.7653 24.1451 33.8577 24.1568 33.9541 24.1762C34.3037 24.2501 34.601 24.4484 34.7939 24.74C34.9867 25.0316 35.051 25.3776 34.9787 25.7158L34.2314 29.0595C33.5925 28.4296 32.7086 28.0292 31.7322 28.0058L32.1903 25.9452L32.3671 25.1676ZM31.451 43.1571H26.4848C22.6919 43.1571 19.6102 40.1712 19.6102 36.5049V33.9194V30.7779C19.6102 30.2686 20.0401 29.8526 20.5665 29.8526H31.6438C32.5921 29.8526 33.3635 30.5991 33.3635 31.5166C33.3635 32.4342 32.5921 33.1807 31.6438 33.1807H24.958V35.0274H25.1509C26.9429 35.0274 28.3974 36.4349 28.3974 38.1689V39.4636H30.3059V38.1689C30.3059 36.9792 29.876 35.8867 29.1527 35.0274H31.6398C32.4554 35.0274 33.2068 34.7631 33.8135 34.3198C34.2434 35.1285 35.0269 35.7506 36.0153 35.9567C36.2443 36.0033 36.4774 36.0266 36.7024 36.0266C37.281 36.0266 37.8354 35.875 38.3216 35.6029V36.501C38.3256 40.1712 35.2439 43.1571 31.451 43.1571Z" fill="black"/>
    <circle cx="28" cy="28" r="27" stroke="black" stroke-width="2"/>
</svg>