<svg width="56" height="56" viewBox="0 0 56 56" fill="none" xmlns="http://www.w3.org/2000/svg">
    <circle cx="28" cy="28" r="27" stroke="black" stroke-width="2"/>
    <path fill-rule="evenodd" clip-rule="evenodd" d="M30.2388 26.6251C30.2388 30.7741 28.7231 35 28.5 36C28.2616 37.0683 27.9696 38.277 27.8342 38.5131C27.6988 38.277 27 36 27 36C27 36 25.4296 30.7741 25.4296 26.6251C25.4296 22.0084 26.6788 16.9606 27.8342 13.2885C28.9896 16.9606 30.2388 22.0084 30.2388 26.6251ZM32.2388 26.6251C32.2388 27.2138 32.2199 27.7825 32.1845 28.3312L32.2023 28.3072C35.3581 24.0639 40.1929 20.3853 42.9222 18.4909C43.6638 17.9762 44.566 18.6165 44.2941 19.4645C43.2932 22.5858 41.2059 28.2145 38.0501 32.4577C37.1472 33.6718 36.2238 34.6823 35.3228 35.5224C38.371 34.6117 41.8058 34.3767 44.1975 34.343L44.2213 34.3427C44.4672 34.3393 44.702 34.3381 44.924 34.3385C45.7994 34.3401 46.1627 35.3382 45.4862 35.8829C45.3146 36.0211 45.1321 36.166 44.9396 36.3161L44.9212 36.3304C42.8772 37.9226 39.7167 40.1008 36.4802 41.2336C33.4285 42.3017 30.953 42.2152 29.3591 41.9292C29.1636 41.8941 28.9814 41.8561 28.813 41.8167V45.6286C28.813 46.1691 28.3747 46.6074 27.8342 46.6074C27.2936 46.6074 26.8553 46.1691 26.8553 45.6286V41.733C26.7857 41.7469 26.7141 41.7605 26.6407 41.7737C25.0468 42.0597 22.5713 42.1462 19.5196 41.078C16.2831 39.9452 13.1228 37.7673 11.0789 36.1751L11.0602 36.1606C10.8677 36.0104 10.6852 35.8656 10.5136 35.7274C9.83707 35.1827 10.2004 34.1845 11.0757 34.183C11.2978 34.1826 11.5326 34.1838 11.7785 34.1871L11.802 34.1875C14.0153 34.2186 17.1221 34.4222 19.9889 35.1741C19.2045 34.4068 18.4077 33.5085 17.6262 32.4577C14.4704 28.2145 12.3832 22.5858 11.3823 19.4645C11.1104 18.6165 12.0126 17.9762 12.7542 18.4909C15.4835 20.3853 20.3183 24.0639 23.474 28.3072L23.4831 28.3194C23.4482 27.7743 23.4296 27.2096 23.4296 26.6251C23.4296 20.1668 25.709 13.0529 26.9883 9.56882C27.2909 8.74455 28.3775 8.74456 28.6801 9.56882C29.9594 13.0529 32.2388 20.1668 32.2388 26.6251ZM21.8431 29.4647C23.9406 32.2851 25.4353 35.8978 25.7853 37.6685C24.1697 36.7961 21.3547 34.1205 19.2572 31.3001C17.2092 28.5465 15.6156 25.1187 14.5021 22.2502C16.9506 24.1712 19.7952 26.7111 21.8431 29.4647ZM29.7867 37.6685C31.4024 36.7961 34.3217 34.1205 36.4192 31.3001C38.4671 28.5465 40.0608 25.1187 41.1743 22.2502C38.7258 24.1712 35.8812 26.7111 33.8333 29.4647C31.7357 32.2851 30.1367 35.8978 29.7867 37.6685ZM20.8172 37.513C22.7781 38.1993 25.0726 39.2791 26 40.1091C24.7462 40.1758 22.1645 39.885 20.2036 39.1986C18.2864 38.5276 16.3603 37.4318 14.7038 36.3234C16.7016 36.4941 18.8999 36.8419 20.8172 37.513ZM29.7867 40.1091C31.0405 40.1758 33.8353 40.0405 35.7962 39.3542C37.7134 38.6831 39.6395 37.5873 41.296 36.479C39.2982 36.6496 37.0999 36.9974 35.1826 37.6685C33.2217 38.3548 30.7141 39.2791 29.7867 40.1091Z" fill="black"/>
</svg>
