<svg width="37" height="41" viewBox="0 0 37 41" fill="none" xmlns="http://www.w3.org/2000/svg">
    <path opacity="0.7" fill-rule="evenodd" clip-rule="evenodd" d="M17.4492 3.41282C17.2266 2.7217 16.3648 2.49079 15.8264 2.97799L7.78097 10.2587C3.55924 14.0791 3.18893 20.5821 6.94968 24.8571C7.649 25.6521 8.50699 26.2539 9.44627 26.6418L7.4872 33.9532C7.36164 34.4218 7.63972 34.9034 8.10831 35.029C8.53002 35.142 8.96231 34.9281 9.1361 34.5426L13.0113 33.5042C13.2419 34.0849 13.5891 34.6254 14.0468 35.0889C16.7569 37.8332 21.1325 38.0011 24.045 35.4726L29.9761 30.3233C30.4189 29.9389 30.2988 29.2222 29.7548 29.0032L22.4684 26.0703C18.8904 24.63 14.809 26.216 13.1422 29.6943C12.8238 30.3588 12.6712 31.0703 12.6754 31.7755L9.67397 32.5797L11.1432 27.0965C12.1505 27.23 13.1942 27.1378 14.1972 26.7991C19.5916 24.9772 22.5224 19.1603 20.7765 13.7408L17.4492 3.41282Z" fill="black"/>
</svg>
