<svg width="40" height="45" viewBox="0 0 40 45" fill="none" xmlns="http://www.w3.org/2000/svg">
    <path opacity="0.7" fill-rule="evenodd" clip-rule="evenodd" d="M23.8579 18.2179C25.2907 18.1475 27.5408 17.6657 28.7903 15.5016C30.7214 12.1568 29.5311 6.0597 29.5311 6.0597C29.5311 6.0597 23.6557 8.07737 21.7245 11.4222C20.4748 13.5869 21.1833 15.777 21.8388 17.0529L21.072 18.3811C21.069 18.1008 21.0431 17.8104 20.9902 17.5103C20.3195 13.7067 15.5713 9.78663 15.5713 9.78663C15.5713 9.78663 12.4503 15.0943 13.1209 18.8979C13.7916 22.7014 18.0001 23.5606 18.0001 23.5606C18.0001 23.5606 18.048 23.5312 18.132 23.4734L15.9932 27.1777C15.9913 26.5865 15.8917 25.9546 15.651 25.2933C14.33 21.6639 9.25973 18.5237 9.25973 18.5237C9.25973 18.5237 7.39419 24.1884 8.71517 27.8177C9.72052 30.5799 12.2818 31.3671 13.4484 31.5855L9.87343 37.7776C9.55157 38.335 9.74258 39.0479 10.3 39.3697C10.8575 39.6916 11.5703 39.5006 11.8922 38.9431L15.2971 33.0456C16.1092 34.0017 18.062 35.8114 20.8951 35.3119C24.6987 34.6412 28.6486 30.0621 28.6486 30.0621C28.6486 30.0621 23.3708 27.1102 19.5672 27.7808C18.9968 27.8814 18.4919 28.0578 18.0457 28.2849L20.1447 24.6494C20.1268 24.8114 20.123 24.904 20.123 24.904C20.123 24.904 22.928 28.2066 26.5799 26.9492C30.2317 25.6918 33.3475 20.3504 33.3475 20.3504C33.3475 20.3504 27.6037 18.0596 23.9519 19.3171C23.5863 19.443 23.2555 19.5997 22.9562 19.7797L23.8579 18.2179Z" fill="black"/>
</svg>
