<svg width="56" height="56" viewBox="0 0 56 56" fill="none" xmlns="http://www.w3.org/2000/svg">
    <circle cx="28" cy="28" r="27" stroke="black" stroke-width="2"/>
    <path d="M29.06 28.7V28.8H29.16H31.63C31.9297 28.8 32.2171 28.9191 32.429 29.131C32.6409 29.3429 32.76 29.6303 32.76 29.93C32.76 30.2297 32.6409 30.5171 32.429 30.729C32.2171 30.9409 31.9297 31.06 31.63 31.06H29.16H29.06V31.16V33.63C29.06 33.9297 28.9409 34.2171 28.729 34.429C28.5171 34.6409 28.2297 34.76 27.93 34.76C27.6303 34.76 27.3429 34.6409 27.131 34.429C26.9191 34.2171 26.8 33.9297 26.8 33.63V31.16V31.06H26.7H24.23C23.9303 31.06 23.6429 30.9409 23.431 30.729C23.2191 30.5171 23.1 30.2297 23.1 29.93C23.1 29.6303 23.2191 29.3429 23.431 29.131C23.6429 28.9191 23.9303 28.8 24.23 28.8H26.7H26.8V28.7V26.23C26.8 25.9303 26.9191 25.6429 27.131 25.431C27.3429 25.2191 27.6303 25.1 27.93 25.1C28.2297 25.1 28.5171 25.2191 28.729 25.431C28.9409 25.6429 29.06 25.9303 29.06 26.23V28.7Z" fill="black" stroke="#E2E2F1" stroke-width="0.2"/>
    <path d="M27.9487 45C27.4738 45.0012 27.0035 44.907 26.5646 44.7229C26.1258 44.5388 25.7271 44.2684 25.3916 43.9273L13.0262 31.3714C12.0494 30.3688 11.2789 29.1788 10.7595 27.8708C10.2401 26.5627 9.98224 25.1628 10.0009 23.7526C10.0104 22.4603 10.2708 21.1825 10.7673 19.9925C11.2638 18.8025 11.9866 17.7237 12.8944 16.8178C13.8021 15.9119 14.877 15.1967 16.0574 14.7133C17.2377 14.2299 18.5004 13.9876 19.7731 14.0005C21.0686 13.9872 22.3536 14.2383 23.5517 14.7388C24.7498 15.2392 25.8368 15.9789 26.7481 16.9139L27.9487 18.133L28.9331 17.1334C30.6329 15.3616 32.9075 14.2754 35.3355 14.0759C37.7635 13.8764 40.1805 14.5772 42.1387 16.0484C43.2534 16.9201 44.1725 18.0229 44.8346 19.2834C45.4967 20.5439 45.8868 21.9332 45.9788 23.3588C46.0708 24.7843 45.8626 26.2134 45.3682 27.5509C44.8737 28.8884 44.1043 30.1035 43.1112 31.1154L30.5057 43.9273C30.1702 44.2684 29.7715 44.5388 29.3327 44.7229C28.8938 44.907 28.4235 45.0012 27.9487 45ZM19.7251 16.4263C17.8169 16.4244 15.9828 17.1763 14.6109 18.523C13.9115 19.2063 13.3553 20.0261 12.9757 20.9332C12.5961 21.8402 12.401 22.8158 12.402 23.8014C12.3915 24.8854 12.593 25.9609 12.9948 26.9653C13.3967 27.9697 13.9909 28.8831 14.743 29.6526L27.1083 42.2085C27.2199 42.3227 27.3527 42.4134 27.499 42.4753C27.6453 42.5372 27.8022 42.569 27.9607 42.569C28.1191 42.569 28.2761 42.5372 28.4223 42.4753C28.5686 42.4134 28.7014 42.3227 28.813 42.2085L41.4304 29.3844C42.1711 28.6165 42.7433 27.6981 43.1095 26.6897C43.4757 25.6812 43.6277 24.6055 43.5553 23.5332C43.4912 22.4499 43.1974 21.3934 42.6939 20.4361C42.1904 19.4788 41.4891 18.6433 40.6381 17.9867C39.1448 16.8687 37.3022 16.3401 35.4535 16.4993C33.6049 16.6586 31.8763 17.4948 30.5898 18.8522L28.801 20.7173C28.6894 20.8315 28.5566 20.9222 28.4103 20.9841C28.264 21.046 28.1071 21.0778 27.9487 21.0778C27.7902 21.0778 27.6333 21.046 27.487 20.9841C27.3407 20.9222 27.2079 20.8315 27.0963 20.7173L25.0554 18.6449C23.6497 17.23 21.7524 16.4331 19.7731 16.4263H19.7251Z" fill="black"/>
</svg>
