<svg width="27" height="27" viewBox="0 0 27 27" fill="none" xmlns="http://www.w3.org/2000/svg">
    <g opacity="0.7">
        <circle cx="13.5" cy="13.5" r="13.5" fill="black"/>
        <path d="M21.9522 16.3211L21.9523 16.3208C22.1077 15.8825 21.8788 15.3957 21.4396 15.2399C21.0014 15.0845 20.5145 15.3134 20.3588 15.7526L20.453 15.786L20.3589 15.7523C19.3413 18.5877 16.6454 20.4767 13.6369 20.4767C10.6262 20.4767 7.93261 18.5878 6.91498 15.7525C6.75906 15.3108 6.27205 15.0847 5.83424 15.2399C5.39237 15.3958 5.16618 15.8829 5.32147 16.3208L5.32159 16.3211C6.57901 19.8296 9.9101 22.1739 13.6369 22.1739C17.3614 22.1739 20.6948 19.8296 21.9522 16.3211Z" fill="#E2E2F1" stroke="#E2E2F1" stroke-width="0.2"/>
        <path fill-rule="evenodd" clip-rule="evenodd" d="M8.81916 7.7019C9.98591 7.7019 10.9346 8.64834 10.9346 9.81733C10.9346 10.9841 9.98815 11.9328 8.81916 11.9328C7.65242 11.9328 6.70374 10.9863 6.70374 9.81733C6.70374 8.65059 7.65017 7.7019 8.81916 7.7019Z" fill="#E2E2F1"/>
        <path fill-rule="evenodd" clip-rule="evenodd" d="M18.4565 7.7019C19.6232 7.7019 20.5719 8.64834 20.5719 9.81733C20.5719 10.9841 19.6255 11.9328 18.4565 11.9328C17.2897 11.9328 16.3411 10.9863 16.3411 9.81733C16.3411 8.65059 17.2875 7.7019 18.4565 7.7019Z" fill="#E2E2F1"/>
    </g>
</svg>
