<svg width="56" height="56" viewBox="0 0 56 56" fill="none" xmlns="http://www.w3.org/2000/svg">
    <circle cx="28" cy="28" r="27" stroke="black" stroke-width="2"/>
    <path d="M39.9002 30.5024L39.9752 30.5938H40.0934H40.664C41.1324 30.5938 41.4862 31.0184 41.4016 31.4792L39.9045 39.6354C39.84 39.9871 39.5197 40.2505 39.1516 40.2537C35.7805 40.2839 33.4898 40.4901 31.7485 40.6665C31.5709 40.6845 31.3994 40.7021 31.2333 40.7192C29.764 40.8702 28.7196 40.9776 27.6858 40.9005C25.3973 40.7299 23.1467 39.6534 16.6157 35.9541C16.1965 35.7167 16.1245 35.1903 16.4237 34.9163C16.8485 34.5274 17.2375 34.3065 17.607 34.205C17.9744 34.104 18.3398 34.1163 18.7268 34.2211C19.5202 34.436 20.3719 35.0269 21.4587 35.7952L21.5382 35.8514L21.6347 35.839L25.8144 35.3054L25.8535 35.3004L25.8893 35.2836C27.1744 34.6779 28.1386 33.5704 27.9389 32.0029C27.7394 30.347 26.3502 29.3601 24.897 28.9471L24.8498 28.9337L24.801 28.9391L20.8031 29.3838L20.672 29.3984L20.61 29.5148C20.1443 30.3901 19.2919 31.2623 18.2899 31.8547C17.2866 32.4479 16.1667 32.7416 15.1624 32.5156C14.979 32.4744 14.871 32.3501 14.8323 32.1876C14.7918 32.0175 14.8299 31.8054 14.9637 31.629L18.2467 27.3007C18.5329 26.9234 18.9597 26.6782 19.4299 26.6211L25.1768 25.9228L26.0451 25.8173L25.2522 25.448L16.2792 21.269C15.5327 20.9214 14.7914 20.4908 14.2517 19.9554C13.7158 19.424 13.3928 18.8048 13.4378 18.0645C13.4533 17.8089 13.5939 17.6221 13.7976 17.5176C14.0062 17.4106 14.2824 17.3912 14.545 17.4958L25.2813 21.7713L25.8376 21.9928L25.604 21.4415L23.242 15.8672C22.9854 15.2616 22.7303 14.6181 22.6734 14.0624C22.6453 13.788 22.668 13.5544 22.7485 13.3657C22.8263 13.1832 22.9655 13.0247 23.2077 12.9061C23.2745 12.8733 23.3878 12.8538 23.5 12.8679C23.6181 12.8827 23.6693 12.9247 23.6821 12.9448L29.0864 21.4769C29.6097 22.3029 30.8886 21.9103 30.8581 20.9329L30.783 18.52C30.7594 17.7639 30.7399 16.9769 30.8757 16.2795C31.0106 15.5872 31.292 15.0175 31.8449 14.6596C32.0191 14.5467 32.3092 14.6603 32.3568 14.9148L33.4714 20.8709C33.7579 22.4018 34.4262 23.8356 35.4146 25.0393L39.9002 30.5024ZM12.9002 31.6188C12.5231 32.1161 12.555 32.8581 13.0893 33.2567C13.8871 33.8521 14.5208 34.0158 14.8222 34.0936C14.8333 34.0965 14.844 34.0992 14.8541 34.1019C14.7906 34.1951 14.6939 34.3204 14.5558 34.4992C14.4696 34.6109 14.3674 34.7434 14.247 34.9019C13.7925 35.5008 14.0015 36.3564 14.6391 36.7196C21.9087 40.8599 24.5054 42.1767 27.193 42.4098C28.4172 42.516 29.6573 42.3969 31.3458 42.2347C31.5034 42.2196 31.6648 42.2041 31.8305 42.1884C33.7789 42.0034 36.346 41.7829 40.1365 41.7533C40.7426 41.7486 41.2841 41.3108 41.3835 40.7011L43.0611 30.4113C43.1835 29.6601 42.6119 28.9747 41.8509 28.9604L40.7586 28.9398L36.3987 23.6323C35.7868 22.8874 35.372 22.0005 35.1924 21.0533L33.857 14.0077C33.7 13.1791 32.8798 12.586 32.0344 12.8403C31.7146 12.9365 31.4305 13.0445 31.1736 13.1751C30.0871 13.7277 29.5644 14.7573 29.3182 15.8919C29.1371 16.7262 29.1001 17.6408 29.1051 18.5087L25.1705 12.2338C24.8797 11.77 24.3833 11.4628 23.858 11.3255C23.3325 11.1882 22.7477 11.2126 22.2624 11.4499C21.6964 11.7268 21.341 12.1353 21.1534 12.6303C20.969 13.1172 20.9534 13.6697 21.0283 14.2333C21.1715 15.3114 21.6591 16.5124 22.0727 17.5311C22.0891 17.5715 22.1054 17.6116 22.1215 17.6515L22.6508 18.9565L14.6525 15.7836C13.5554 15.3484 12.2017 15.8283 11.9188 17.053C11.86 17.3078 11.8147 17.5644 11.7859 17.8213C11.6338 19.1786 12.2614 20.2662 13.1892 21.1337C14.1126 21.997 15.3564 22.6659 16.5026 23.2011L20.149 24.9036L18.7458 25.0628C18.1345 25.1322 17.5783 25.4488 17.2066 25.9391L12.9002 31.6188ZM14.9889 34.1441C14.9888 34.1442 14.9876 34.1436 14.9856 34.1424C14.9879 34.1435 14.9889 34.1441 14.9889 34.1441ZM25.341 33.7475L21.9849 34.1315C21.0408 33.4916 20.4108 33.1548 20.0296 32.9596C19.9786 32.9334 19.9337 32.9106 19.8941 32.8906C19.8922 32.8896 19.8902 32.8886 19.8882 32.8876C20.0047 32.8143 20.1519 32.7154 20.322 32.5769C20.7014 32.268 21.184 31.7712 21.7068 30.934C21.8823 30.9128 22.0702 30.8862 22.264 30.8587L22.2849 30.8557C22.5195 30.8224 22.7638 30.7877 23.0132 30.7581C23.5283 30.6969 24.0524 30.6589 24.5297 30.6985C25.0086 30.7383 25.4172 30.8543 25.7202 31.081C26.0144 31.3011 26.2344 31.6444 26.3067 32.1965C26.3794 32.8824 25.9977 33.3745 25.341 33.7475ZM19.6481 32.7564C19.6482 32.7564 19.6496 32.7575 19.6519 32.7595C19.6491 32.7574 19.6479 32.7564 19.6481 32.7564Z" fill="black" stroke="black" stroke-width="0.5"/>
</svg>
