<svg width="28" height="27" viewBox="0 0 28 27" fill="none" xmlns="http://www.w3.org/2000/svg">
    <path opacity="0.7" d="M25.7934 2.46519C25.0941 1.68386 24.2629 1.06387 23.3476 0.640825C22.4323 0.217776 21.4509 0 20.4597 0C19.4685 0 18.4871 0.217776 17.5717 0.640825C16.6564 1.06387 15.8252 1.68386 15.1259 2.46519L14.0063 3.70192L12.8945 2.46519C12.192 1.68551 11.3583 1.06737 10.4411 0.646068C9.52381 0.224761 8.54094 0.00853706 7.54857 0.00974168C5.54438 0.0121745 3.62314 0.900093 2.20751 2.47817C0.791881 4.05624 -0.00218268 6.1952 4.50636e-06 8.42449C0.00219169 10.6538 0.800451 12.7908 2.21917 14.3654L13.3299 26.6808C13.4176 26.7818 13.5227 26.8621 13.6389 26.9169C13.7551 26.9717 13.8801 27 14.0063 27C14.1325 27 14.2575 26.9717 14.3737 26.9169C14.4899 26.8621 14.595 26.7818 14.6827 26.6808L25.7934 14.3654C27.2064 12.791 28 10.6573 28 8.43262C28 6.20797 27.2064 4.07422 25.7934 2.49979V2.46519Z" fill="black"/>
</svg>
