<?xml version="1.0" encoding="utf-8"?>
<!-- Generator: Adobe Illustrator 22.0.1, SVG Export Plug-In . SVG Version: 6.00 Build 0)  -->
<svg version="1.1" id="Слой_1" xmlns="http://www.w3.org/2000/svg" xmlns:xlink="http://www.w3.org/1999/xlink" x="0px" y="0px"
	 viewBox="0 0 7.3 7.1" style="enable-background:new 0 0 7.3 7.1;" xml:space="preserve">
<path d="M1.2,6.9c-0.3,0.3-0.7,0.3-1,0c-0.3-0.3-0.3-0.7,0-1l4.6-4.5l-1.9,0c-0.8,0-1.5-0.3-1.5-0.7C1.4,0.3,2.1,0,2.9,0l2.8,0
	c0.2,0,0.4,0,0.6,0.1C6.5,0,6.8,0.1,7,0.3c0,0,0,0,0.1,0.1c0.2,0.1,0.2,0.2,0.2,0.3l0,5c0,0.2-0.3,0.3-0.7,0.3
	c-0.4,0-0.7-0.2-0.7-0.4l0-3.2L1.2,6.9z"/>
</svg>
