<svg width="180" height="224" viewBox="0 0 180 224" fill="none" xmlns="http://www.w3.org/2000/svg">
    <mask id="path-1-inside-1" fill="white">
        <path fill-rule="evenodd" clip-rule="evenodd" d="M82.7942 9L75 0L67.2058 9H12C5.37258 9 0 14.3726 0 21V212C0 218.627 5.37258 224 12 224H168C174.627 224 180 218.627 180 212V21C180 14.3726 174.627 9 168 9H82.7942Z"/>
    </mask>
    <path fill-rule="evenodd" clip-rule="evenodd" d="M82.7942 9L75 0L67.2058 9H12C5.37258 9 0 14.3726 0 21V212C0 218.627 5.37258 224 12 224H168C174.627 224 180 218.627 180 212V21C180 14.3726 174.627 9 168 9H82.7942Z" fill="white"/>
    <path d="M75 0L76.5119 -1.30931L75 -3.05505L73.4881 -1.30931L75 0ZM82.7942 9L81.2824 10.3093L81.8805 11H82.7942V9ZM67.2058 9V11H68.1195L68.7176 10.3093L67.2058 9ZM73.4881 1.30931L81.2824 10.3093L84.3061 7.69069L76.5119 -1.30931L73.4881 1.30931ZM68.7176 10.3093L76.5119 1.30931L73.4881 -1.30931L65.6939 7.69069L68.7176 10.3093ZM12 11H67.2058V7H12V11ZM2 21C2 15.4772 6.47715 11 12 11V7C4.26801 7 -2 13.268 -2 21H2ZM2 212V21H-2V212H2ZM12 222C6.47715 222 2 217.523 2 212H-2C-2 219.732 4.26801 226 12 226V222ZM168 222H12V226H168V222ZM178 212C178 217.523 173.523 222 168 222V226C175.732 226 182 219.732 182 212H178ZM178 21V212H182V21H178ZM168 11C173.523 11 178 15.4772 178 21H182C182 13.268 175.732 7 168 7V11ZM82.7942 11H168V7H82.7942V11Z" fill="black" mask="url(#path-1-inside-1)"/>
</svg>