<svg width="300" height="149" viewBox="0 0 300 149" fill="none" xmlns="http://www.w3.org/2000/svg">
    <mask id="path-1-inside-1" fill="white">
        <path fill-rule="evenodd" clip-rule="evenodd" d="M141.206 140L149 149L156.794 140L288 140C294.627 140 300 134.627 300 128L300 12C300 5.37259 294.627 -4.69686e-07 288 -1.04907e-06L12 -2.51778e-05C5.3726 -2.57571e-05 1.25563e-05 5.37256 1.19769e-05 12L1.83588e-06 128C1.25649e-06 134.627 5.37259 140 12 140L141.206 140Z"/>
    </mask>
    <path fill-rule="evenodd" clip-rule="evenodd" d="M141.206 140L149 149L156.794 140L288 140C294.627 140 300 134.627 300 128L300 12C300 5.37259 294.627 -4.69686e-07 288 -1.04907e-06L12 -2.51778e-05C5.3726 -2.57571e-05 1.25563e-05 5.37256 1.19769e-05 12L1.83588e-06 128C1.25649e-06 134.627 5.37259 140 12 140L141.206 140Z" fill="white"/>
    <path d="M149 149L147.488 150.309L149 152.055L150.512 150.309L149 149ZM141.206 140L142.718 138.691L142.119 138L141.206 138L141.206 140ZM156.794 140L156.794 138L155.881 138L155.282 138.691L156.794 140ZM288 140L288 138L288 140ZM150.512 147.691L142.718 138.691L139.694 141.309L147.488 150.309L150.512 147.691ZM155.282 138.691L147.488 147.691L150.512 150.309L158.306 141.309L155.282 138.691ZM288 138L156.794 138L156.794 142L288 142L288 138ZM298 128C298 133.523 293.523 138 288 138L288 142C295.732 142 302 135.732 302 128L298 128ZM298 12L298 128L302 128L302 12L298 12ZM288 2C293.523 2 298 6.47716 298 12L302 12C302 4.26802 295.732 -2 288 -2L288 2ZM12 1.99997L288 2L288 -2L12 -2.00003L12 1.99997ZM2.00001 12C2.00001 6.47713 6.47717 1.99997 12 1.99997L12 -2.00003C4.26803 -2.00003 -1.99999 4.26799 -1.99999 12L2.00001 12ZM2 128L2.00001 12L-1.99999 12L-2 128L2 128ZM12 138C6.47716 138 2 133.523 2 128L-2 128C-2 135.732 4.26802 142 12 142L12 138ZM141.206 138L12 138L12 142L141.206 142L141.206 138Z" fill="black" mask="url(#path-1-inside-1)"/>
</svg>