<svg width="29" height="35" viewBox="0 0 29 35" fill="none" xmlns="http://www.w3.org/2000/svg">
    <path fill-rule="evenodd" clip-rule="evenodd" d="M6.53297 33.2979C5.71217 34.6942 3.9097 35.1696 2.50703 34.3598C1.10437 33.55 0.632673 31.7616 1.45347 30.3653L14.7611 7.72744L4.21126 10.4847C2.64166 10.8949 1.03358 9.96647 0.619515 8.41098C0.205453 6.85549 1.1422 5.26196 2.71181 4.85174L19.7639 0.395098C20.4903 0.205245 21.225 0.302105 21.8457 0.615163C21.9775 0.667511 22.107 0.730013 22.2334 0.802938C22.6379 1.03651 22.965 1.35149 23.206 1.71498C23.6599 2.089 24.0049 2.60169 24.1669 3.21044L28.6653 20.1092C29.0793 21.6647 28.1426 23.2583 26.573 23.6685C25.0034 24.0787 23.3953 23.1503 22.9812 21.5948L19.9988 10.3909L6.53297 33.2979Z" fill="black"/>
</svg>